<?xml version="1.0" encoding="UTF-8"?>
<svg id="Layer_2" data-name="Layer 2" xmlns="http://www.w3.org/2000/svg" viewBox="0 0 375.43 371.87">
  <defs>
    <style>
      .cls-1 {
        stroke: #000;
        stroke-miterlimit: 10;
        stroke-width: 2px;
      }
    </style>
  </defs>
  <g id="Layer_1-2" data-name="Layer 1">
    <path class="cls-1" d="M227.97,289c8.72,7.6,16.2,14.11,11.2,26.7-6.75,16.99-40.33,27.76-42.96,42.03-.87,4.69-1.36,8.54,4.21,8.31,100.77-4.26,178.83-99.25,168.54-198.53C359.58,76.95,282.99,6.7,191.97,5V1.01c59.47-.64,116.47,31.25,149.82,79.68,41.66,60.5,43.72,140.92,4.6,203.23-32.51,51.79-90.05,85.85-151.75,86.94-15.05-23.37,22.44-35.82,34.82-48.86,12.07-12.71,6.72-24.68-8.49-29.98,10.66,15.64-10.74,23.67-22.03,28.46-28.29,12-59.07,18.84-85.02,36.09C52.35,330.04,9.02,271.47,1.98,204.5-9.18,98.33,76.48-.11,183.98,1.01v3.99C68.32,7.72-16.38,115.68,11.26,229.21c11.1,45.59,41.87,86.86,81.79,111.21,3.95,2.41,15.16,9.22,18.93,10.16,1.06.26,1.95.59,3.01.02,21.59-13.98,46.55-20.56,70.23-29.85,7.38-2.9,30.13-11.04,33.23-17.76,2.67-5.79-6.85-13.98-10.98-13.98H54.97v-4h80c-17.06-22.61-18.1-46.95.49-69.01,2.6-3.08,16.57-16.77,19.44-17.58,3.37-.94,4.02,1.8,1.43,4.45-6.06,6.18-12.7,10.5-18.33,17.67-12.99,16.55-16.51,36.92-3.04,54.47,2.94-50.07,60.91-74.09,68-122-16.33,23.04-42.32,32.73-64.91,47.58-13.59,8.94-26.8,19-29.1,36.41-2.89,1.9-6.56-5.92-7.47-8.01-26.25-60.5,79.85-51.28,85.4-93.57,5.84-44.48-52.82-42.57-77.83-63l-12.08-10.41c-1.1,18.52,15.56,27.78,30.32,34.17,9.49,4.11,44.35,13.43,46.66,23.35,1.37,5.89-7.98-2.75-10.06-3.94-12.97-7.4-27.97-10.38-41.59-16.41l-18.32-10.17c.33,28.11,33.77,28.26,53.53,34.96,3.65,1.24,15.23,4.67,10.9,9.07l-51.43-16.03c2.77,9.76,11.48,16.58,20.77,19.72,2.79.94,12.27,3.27,14.73,3.27h24.5v4h-29.5c-9.93,0-27.54-9.57-32.32-18.68-1.98-3.78-2.41-10.1-3.71-12.29-.46-.77-4.29-3.19-5.88-5.12-8.28-10.07-3.39-15-5.83-24.17-.56-2.09-4.05-5.72-5.25-8.75-1.87-4.73-2.77-10.31-2.38-15.37.21-2.77,1.27-10.77,4.77-8.52,12.14,24.58,42.16,29.43,64.78,39.72,3.76,1.71,15.49,9.33,17.29,9.75,1.94.45,3.84-.86,6.29-.41,2.58.48,6.13,3.72,9.24,3.85,1.18-2.03-1.36-4.15-1.35-6.51,0-11.15,7.71-5.49,11.19-6.62,5.13-4.71,3.43-12.56,3.67-18.88-12.43,2.26-12.19,19.04-24.99,19.99-1.21-5.21,3.26-4.95,5.66-7.33,3.01-2.98,4.97-9.57,9.32-12.18l9-5.98c-6.56-6.4-16.02-5.85-22.02.96-3.71,4.21-3.44,9.94-10.45,9.6-14.56-.7-11.31-25.88,5.21-20.3,2.05.69,5.18,3.89,5.75,3.94.53.04,5.9-2.53,8.97-2.75,4.98-.35,12.7,1.01,15.99,5.1,2.32,2.88,2.03,18.96,1.32,23.2-1.36,8.1-6.09,9.75-13.76,8.74-2.78,13.31,10.44,12.66,16.66,19.35,8.91,9.59-3.41,17.18-5.2,26.61-1.03,5.42-.76,11.26-1.92,17.08-9.35,47.15-72.21,74.31-68.54,126.96h116c-5.19-40.6,53.83-41.24,48,0l17.56.94.44,3.06h-93ZM176.78,71.79c.94-.54,3.27-7.16,5.1-8.29-6.54-7.5-16.13-.25-9.92,8.01,1.15.67,3.69.94,4.82.29ZM106.96,227c12.38-29.13,47.49-38.38,71.34-56.16,16.12-12.02,21.8-21.31,29.79-39.21,1.65-3.69,6.02-7.4,4.71-11.9-1.63-5.6-22.73-13.59-28.83-13.71,7.6,9.83,9.85,21.97,6.52,34.01-11.32,40.92-98.07,33.08-87.08,80.04.41,1.74,1.86,6.02,3.55,6.93ZM297.87,284.9c5.49-17.51-11.79-31.8-28.27-23.77-7.75,3.78-14.15,16.63-7.99,23.74l36.26.03Z"/>
    <path class="cls-1" d="M223.98,219l13.98-10-8.99,13.99,30.99,9-30.99,7.02,7.99,12.99c-.58.63-8.31-6.25-9.49-7-.85-.55-1.27-1.82-2.53-.53l-8.96,29.53-7.02-30.99-13.99,8.99,8-12.98-29.99-7.99,29.51-8c1.33-1.26.11-1.64-.51-2.52-.92-1.31-8.13-9.29-7-10.49l12.98,8,8.02-29.99,8,30.99ZM215.97,229v-29l-6.99,22.53.9,2.03,6.08,4.44ZM218.97,231h27c.23-1.46-1.73-1.36-2.79-1.7-2.31-.75-17.77-5.06-18.73-4.96s-6.51,5.75-5.48,6.67ZM213.97,231.01c-7.83.39-15.65.69-23.5,1-1.21.05-3.72-.75-3.48.99l20.37,4.79c1.77-1.47,3.62-2.97,5.34-4.49.68-.6,1.92.05,1.27-2.28ZM216.97,233v28l6.87-22.4-6.87-5.6Z"/>
    <path class="cls-1" d="M214.97,174c-.22-1.76.07-3.31.49-5.01,3.57-14.44,18.34-46.08,25.04-60.96,1.27-2.81,2.83-8.6,5.96-9.06,2.1-.31,1.4.73,1.97,2.02l32.53,145.01c-1.95.06-4.11.49-4.8-1.69l-16.69-70.31h-44.5ZM258.97,169l-13.01-59-24.99,59h38Z"/>
  </g>
</svg>