<?xml version="1.0" encoding="UTF-8"?>
<svg id="Layer_2" data-name="Layer 2" xmlns="http://www.w3.org/2000/svg" viewBox="0 0 380.33 379.93">
  <defs>
    <style>
      .cls-1 {
        stroke: #000;
        stroke-miterlimit: 10;
        stroke-width: 1.5px;
      }
    </style>
  </defs>
  <g id="Layer_1-2" data-name="Layer 1">
    <path class="cls-1" d="M176.64,1.17c150.98-9.79,254.48,155.22,176.01,286.01-74.74,124.58-256.96,122.25-327.98-4.64C-42.67,162.21,39.78,10.04,176.64,1.17ZM285.85,346.87c87.81-53.32,114.78-167.38,59.42-254.92C263.66-37.05,72.11-16.68,17.83,125.35c-51.09,133.71,65.17,271.56,205.22,246.22,15.46-2.8,30.11-8.42,44.79-13.72.24-1.8-2.17-.91-3.24-.74-7.63,1.2-15.52,3.5-23.4,4.61-31.6,4.45-90.07,8.27-115.37-14.35-19.28-17.24-7.83-38.26,11.03-49.21v-60.82c-.55-4.66-5.95-10.28-8.2-14.8-4.9-9.83-7.88-20.73-10.01-31.49-9.48-2.57-5.28-.59-2.61,4.11,1.14,2.01,10.29,21.15,3.32,19.69-1.57-.33-2.25-7.88-3.04-9.97-6.92-18.23-24.44-24.29-41.23-30.77-18.97-7.32-39.98-11.63-55.75-25.25-.66,25.59,34.37,29.47,53.27,35.73,14.39,4.77,34.8,9.35,39.24,25.76,0,.88-2.03.66-2.47.47-.62-.27-6.82-8.18-9.06-9.94-17.54-13.8-49.79-14.41-69.47-26.02.25,15.49,16.26,19.34,28.81,21.68,7.05,1.32,39.87,3.71,42.73,8.27l.49,1.53-1.53,2.49c-17.79-7.88-37.97-5.73-56.51-10.97,9.47,23.58,40.12,7.02,58.04,14.63l-.05,3.36c-1.08.38-2.19-1-2.49-1h-33c-.15,0-2.63,1.21-2.5,1.5,11.21,13.41,30.07,3.09,43.99.51,3.39,3.43-10.41,7.05-12,7.49-9.03,2.51-22.06,4.92-30.34-.66-3.68-2.48-4.33-6.36-6.71-8.29-2.52-2.05-7.95-2.94-11.45-5.55-7.31-5.46-5.83-10.85-9.47-15.53-2.46-3.17-7.37-3.96-10.23-9.77-2.21-4.49-1.68-9.53-2.98-13.02-.31-.83-5.24-4.99-6.64-7.36-2.05-3.49-3.78-8.8-4.17-12.83-1.68-17.66,3.29-8.27,9.66-3.66,25.04,18.12,58.71,19.45,83.32,38.17-2.18-9.5-13.62-26.61-8.22-35.75,1.13-1.91,3.18-1.83,3.35-3.74.35-3.87-1.92-10.58-2.16-14.96-.47-8.68-.02-17.48,1.82-25.94-7.11-5.14-11.92-12.69-8.28-21.61,3.66-8.97,9.95,5.96,12.5,9.01,5.1-8.4-2.46-11.74-2.03-19.46.14-2.58,3.43-11.97,6.4-11.46,3.36.58,4.53,8.47,6.14,10.92l6.03-6.02c-.82-6.26-1.15-10.73,2.95-16,7.01-9.02,10.75-3.4,9.53,6.02.7.73,8.22-2.6,9.01-3.48,2.13-2.37.15-4.77.43-7.57.72-7.38,7.38-13.77,14.55-14.95,1.54,4.63,1.39,9.37.02,14,22.13-2.88,11.51,14.34-2.39,12.97-2.99-.3-6.11-2.83-9.61-1.95.45,1.69,3.13,1.26,4.96,2.53,1.69,1.17,5.6,5.26,5.9,7.18l-.87,2.78c-8.66,4.3-14.92-1.28-20.49-7.33l-7.51,5.82c19.04,1.31,9.03,13.69-4.42,11.93-1.85-.24-6.41-2.62-7.49-1.85l-5.09,9.92,9.35-.84,1.57,1.49c-.09,8.8-8.61,13.96-16.91,13.38l-2,21.98,9.16-16.33c13.31-25.64,52.67-27.74,69.38-44.62,2.21-2.23,6.11-11.17,8.7-6.77,10.83,18.38,29.53,18.69,46.77,28.21,10.43,5.75,19.81,13.53,26.81,23.19l9.16,16.33c.04-4.22-.19-19.06-2.47-22.02-1.3-1.69-4.82-.7-6.8-1.2-9.93-2.55-15.55-18.87,1.27-12.78l-5.99-10.52c-6.01,3.27-14.74,4.3-19.93-1.04-5.61-5.78,3.97-8.29,8.91-8.43l-7.52-5.81c-5.54,12.23-32.79,12.34-14.99-2.19,1.59-1.3,4.09-1.34,4.5-2.98-8.13,1.29-13.59,4.39-20.92-1.59-9.62-7.85,1.34-9.83,8.92-9.43-5.9-15.86,6.61-16.55,12.57-5.05,3.02,5.82,1.12,6.99,1.41,11.56.19,3.03,7.61,4.71,10.02,6.5l1.1-10.91c5.52-1.31,10.73,5.98,11.67,10.63.62,3.08-.65,8.18-.22,9.33.53,1.41,4.88,4.25,5.96,5.94,1.62-8.86,8.44-16.64,11.81-3.81,2.81,10.7-2.87,11.43-3.33,16.38-.23,2.46,2.35,4.79,2.03,7.44,3.15.73,1.6-2.6,2.75-4.74.97-1.82,4.94-6.86,6.93-7.14,8.54,6.32,3.23,19.93-5.71,23.46,2.35,9.54,2.53,20.09,2.01,29.9-.17,3.12-2.24,8.48-1.99,11.01s4.96,5.39,4.91,10.89-8.67,27.73-12.88,31.15c-2.56,2.08-6.8,2.48-7.55,3.45-.84,1.09-3.25,12.91-4.22,15.78-13.5,39.83-57.13,86.1-99.15,50.63l-17.11-15.39v53c6.71-1.68,12.86-5.51,19.48-8.02,31.4-11.89,64.47-13.88,94.73-24.27,29.59-10.16,46.18-35.5,28.63-65.05-1.43-2.4-4.63-4.55-5.63-7.38-2.28-6.46,6.71,1.84,7.79,3.21,20.31,25.61,4.84,58.35-22.64,70.36-32.72,14.29-125.23,19.32-141.09,54.91-9.41,21.12,14.72,33.41,31.52,37.95,32.22,8.72,70.77,3.86,103.21-1.73.24-1.73-2.28-.95-3.48-.99-2.96-.1-5.93.25-8.87-.14l-1.5-1.5c2-18.5-10.22-67.95,23.13-61.13,4.18.85,12.73,9.07,12.73,13.27v45.5l2.99-2.51c-.88-12.54,1.22-26.65,0-38.98-2.74-27.67-38.36-25.84-41.01-4.03-1.42,11.69.11,23.48.08,35.05-.01,4.49-1.65,9.83-1.56,14.48-2.25-.01-2.35-1.74-2.54-3.46-.69-6.06,1.14-38.52-.08-40.41-16.58-3.78-29.55-17-9.22-27.99,12.07-6.53,27.51-9.16,40.33-14.67,15.14-6.51,27.37-15.45,38.55-27.45,3.37-3.62,5.92-10.84,11.48-10.01,1.12.98-9.19,13.61-10.48,15.01-10.22,11.08-24.69,20.52-38.55,26.45-13.42,5.74-75.85,18.9-32.59,33.61,4.38-15.89,18.54-26.07,35.01-18.97,6.6,2.85,14.61,13.22,14.61,20.39v40.5ZM148.86,49.87c6.62-.87,8.72-8.16,7.98-13.99-4.63,3.14-8.69,8.07-7.98,13.99ZM230.85,49.87c1.95-2.03-3.83-13.38-7.99-12.99-.23,5.07,1.87,13.05,7.99,12.99ZM167.85,48.88c-5.12-.33-10.52-.42-13.99,3.98,5.14,2,11.2,1.14,13.99-3.98ZM225.84,51.89c-4.45-2.34-7.69-3.83-12.99-3.01.96,5.9,8.02,5.12,12.49,5l.5-1.99ZM131.85,51.88c-2.5-.53-1.76.57-2.59,1.87-1.83,2.86-2.75,5.65-2.4,9.12,5.31-.76,5.3-6.96,4.99-10.99ZM252.85,62.87c.41-4.12-1.26-8.79-4.98-10.99-.32,4.03-.33,10.23,4.98,10.99ZM153.85,65.87c.42-4.14-10.25-8.1-11.99-5.98,2.41,4.09,7.29,6.49,11.99,5.98ZM237.85,59.88c-4.71-.51-9.58,1.88-12,5.98,5.36.85,9.28-1.51,12-5.98ZM184.85,66.88l-17.64,9.85c-16.52,6.01-32.88,12.76-44.87,26.13-1.35,1.5-10.4,12.99-9.48,14.01,20.97-21.01,59.52-19.56,71.99-49.99ZM190.84,66.87c-2.96-.55-2.81,4.03-4.17,6.32-4.17,7.03-8.97,11.71-15.5,16.49-22.9,16.76-69.43,19.32-64.15,57.02l5.82,3.16c-3.73-31.03,21.77-40.55,48.01-39.99v3.99c-16.23.11-37.1,2.72-42.99,20.52.15,3.22.95.47,1.68-.2,6.12-5.65,11.11-9.44,19.82-10.31,7.58-.76,35.91,1.37,36.5,11.58s-20.44-.06-25-1.1c-5.94-1.35-12.15-2.21-18.27-1.25-4.1.64-8.04,4-10.51,4.6-1.71.41-3.95-1.25-4.76.11-.33,12.18-4.12,19.51,7.85,26.24,11.81,6.64,34.56,11.48,31.61,30.26-2.28,14.54-24.66,9.82-32.44,2.57.5,5.62,2.96,12.12,5.33,17.67,7.5,17.51,22.27,35.59,38.87,45.13,8.71,5.01,34.74,14.9,31.26-4.25-1.94-10.67-17.67-5.36-21.84-12.19-3.8-6.2-4.13-5.3-10.18-9.82-1.14-.85-1.51-2.83-2.21-3.27-1.38-.87-4.51-.11-5.71-2.77,1.77-2.27,4.48-1.11,6.93-2.05,6.2-2.38,12.32-11.04,20.05-8.44,3.8-17.06-5.07-7.67-12.74-10.77-6.96-2.82-4.95-15.09.22-14.24,2.89.48-1.16,5.66-1.08,7.51.05,1.22,1.94,4,2.58,3.49.11-3.08,2.35-3.24,5.03-3.01-2.91-25.02,2.86-58.52,27.67-70.81,10.89-5.39,28.24-7.35,39.58-2.94,3.01,1.17,12.77,6.92,12.78,10.25.01,5.15-8.43-1.59-11.59-2.43-18.36-4.91-29.58,7.63-41.88,5.9-1.76-.25-3.7-2.04-4.91-1.81-3.54.67-11.37,14.55-12.83,18.17-3.46,8.61-8.56,36.48-5.16,44.45.62,1.45,4.46,3.15,5.84,3.15,2.69,0,6.29-3.81,9.09-3.95,2.41-.12,3.2,2.05,5.39,2.02,2.6-1.97-3.28-9.22.52-9.99,3.43-.69,6.47,11.18-.79,14.25-4.41,1.86-6.4-1.32-8.83-.78-5.54,1.23-5.28,8.08-4.88,12.52,10.77-6.39,17.32,9.86,28,8v2.97c-8.17,1.19-11.34,10.89-20.19,12.34l-17.81.67c11.53,2.31,26.1,4.07,22.46,20-.26,1.11-1.16,1.44,1.04,1.02,1.83-.35,7.84-3.97,9.8-5.21,19.95-12.53,35.81-36.65,41.68-59.33.14-.54.29-1.63-.48-1.47-24.03,19.18-50.3-5.15-20.03-24.03,7.35-4.59,26.03-9.46,27.47-18.53,1.23-7.74-.48-20.44-4.75-27.14-6.79-10.66-28.46-13.87-40.2-13.31v-3.99c26.46-.93,52.02,8.99,49.01,40,14.04-7.21,3.92-24.97-5-32.51-21.27-17.98-61.93-18.33-71.02-50.49ZM266.84,116.87c-7.65-16.55-22.68-26.39-38.63-33.86-6.9-3.23-14.44-5.26-21.23-8.77-1.55-.8-11.61-7.85-12.12-7.37,12.52,30.68,50.79,29.03,71.99,49.99ZM111.84,67.87c-1.96-2.01-2.85,4.03-2.9,4.63-.2,2.87,1,11.13,3.16,6.13,1.63-3.78.29-7-.26-10.76ZM269.84,67.87c-2.43-.32-1.58.01-2.1,1.39-1.56,4.15-.71,7.48.12,11.61,4.79-2.87,2.67-8.74,1.98-13ZM135.85,71.88c-4.3-1.27-9.58-2.23-12.98,1.49-.06,2.27,12.05,2.57,12.98-1.49ZM243.85,71.88c2.55,3.75,9.66,5.04,12.98,1.49-3.59-4-8.46-2.28-12.98-1.49ZM102.84,99.87c-.39-4.01-1.04-11.91-5.98-12.99-.65,5.14,1.52,10.36,5.98,12.99ZM282.85,86.88c-3.87-.79-6.51,11.43-5.99,11.99,5.56-1.11,6.59-7.13,5.99-11.99ZM118.85,89.88c-4.02.11-8.87,2.53-8.99,6.99,4-.65,8.87-2.2,8.99-6.99ZM269.84,96.87c.27-4.61-4.84-7.46-8.99-6.99.72,4.56,5.29,5.98,8.99,6.99ZM243.85,127.88c-12-.81-27.96-1.15-36.99,7.98,7.14.99,12.98-3.19,19.58-4.91l17.42-3.07ZM154.35,127.87c-5.8-.65-12.58.48-18.5,0l15.03,2.47c3.63.82,17.67,6.78,19.45,6.54,1.11-.15,1.66-1.28.54-2.52-2.48-2.76-12.79-6.06-16.52-6.48ZM266.54,184.55c2.82-2.65,10.74-23.26,11.11-27.47.57-6.43-4.54-9.18-8.83-3.73-5.02,6.38-3.17,23.73-5.99,32.01.6,1.37,3.05-.21,3.7-.81ZM116.84,186.87c-2.51-7.93-1.16-29.64-7.05-34.44-1.53-1.24-3.24-1.91-5.23-1.42-4.99,1.36-1.79,9.91-.75,13.39,2.04,6.85,6.3,19.57,13.02,22.47ZM117.86,163.87c-.76,1.03,2.93,21.06,3.82,23.67,3.55,10.46,29.01,17.95,31.14,6.8,3.44-17.96-24.77-22.24-34.96-30.48ZM261.84,163.87c-9.16,6.72-38.81,14.2-35.82,29.26,2.52,12.65,28.58,4.45,31.76-4.83.86-2.49,4.8-23.45,4.06-24.43ZM205.85,225.86c-1.51-2.05-6.48-5.45-8.76-5.83-3.43-.57-4.95,2.04-7.67,1.84-1.84-.14-3.3-1.87-5.14-2-2.62-.19-9.19,3.41-10.43,5.99,5.58-2.04,10.61.1,15.5.09,5.22,0,10.61-2.21,16.5-.09ZM207.85,229.88c-3.39.3-7.14-1.8-10.35-1.66-6.44.28-8.46.42-15.12.18-3.67-.13-7.72,1.85-11.52,1.48,5.88,9.21,22.33,10.33,31.32,5.81,1.03-.52,7.17-4.38,5.68-5.81ZM274.85,349.87v-45.5c0-4.55-8.87-10.31-13.5-10.31-5.07,0-14.5,5.96-14.5,11.31v44.5h28Z"/>
    <path class="cls-1" d="M222.03,332.05c-1.33,2.08.82,10.57-7.57,7.69-1.57-.54-1.56-4.52-3.59-2.86-.75.61.61,3.39-4.52,3.08-5.44-.33-4.62-4.94-4.49-9.09-8.69,1.16-21.33-1.56-29.48.03-3.99.77-6.24,11.53-15.08,12.91-29.85,4.68-30.7-39.33-2.94-36.95,9.31.8,12.77,6.82,17.17,13.85l53.63.37c10.17,6.89-1.96,9.16-3.11,10.97ZM222.35,323.87h-54c-3.98-11.43-18-18.88-27.03-8.03-11.63,13.96,7.44,32.42,21.04,21.04,2.97-2.48,3.5-6.71,4.98-8.02,2.12-1.89,25.1-.93,30.05-.94,2.8,0,6.23-2.17,8.5.62l-.04,7.33c5.26-.33.81-10.4,8.55-6.05l.45,6.06h2.99s.06-7.96.06-7.96l5.94-1.06c.54-.74-.73-2.77-1.5-2.99Z"/>
    <path class="cls-1" d="M250.85,254.87l.97-3.52c22.14-.67,35.94-22.35,26.9-42.85-1.28-2.89-6.74-8.58-6.87-9.14-.28-1.23,1.25-2.76,2.48-2.48,22.62,20.02,7.13,60.16-23.48,57.99Z"/>
    <path class="cls-1" d="M254.85,240.89c15.71-1.77,22.52-19.45,12.2-31.52l2.3-2.47c10.9,9.72,6.88,28.87-5.6,35.38-3.27,1.71-9.79,4.72-8.9-1.39Z"/>
    <path class="cls-1" d="M254.86,233.87c-1.93-5.82,4.92-3.98,6.33-7.22,1.93-4.41-1.8-7.55,1.17-10.76,7.66,6.45,1.91,18.04-7.49,17.97Z"/>
    <path class="cls-1" d="M192.86,113.87l2.99-15.49c3.72-9.56,5.26,11.04,6.01,13.49l3.52-8.96,2.54.55,1.94,7.41,2-4.99c8.56-1.75-.63,12.79-1.53,12.99-3.94.91-2.17-6.92-5.48-6l-1.56,8.05-3.33-.17c-1.24-.99.02-9.04-3.1-9.88.45,2.84-1.17,19.46-3.52,19.99-1.6.37-2.19-1.23-2.45-2.53-1.4-7.07-.99-15.23-2.05-22.46-1.42.61-1.62,5.06-1.85,6.63-.66,4.46-.13,10.62-2.65,14.36-3.96.84-4.14-12.52-4.5-14.99-2.11.96-.9,6.14-2.94,7.55-.98.68-1.96.46-3.04.44l-2.52-5.99-2.02,3.99c-1.49.25-2.62-.28-3.54-1.43-1.24-1.56-4.47-11.5-.45-10.56l2.01,3.99,2.61-6.89,3.34-.16,2.55,8.05c.87-3.78.53-9.16,1.9-12.6.58-1.46.33-2.42,2.6-1.39,2.82,3.26,2.02,8.61,2.52,12.5.23,1.8-.4,1.65,1.99,1.49l2.01-21.41c.2-1.43,3.49-1.02,4,1.91,1.2,6.97.64,15.36,2.01,22.5Z"/>
    <path class="cls-1" d="M120.86,148.88c13.27,6.25,24.78-7.27,38.99-2.02.18-1.46-2.62-1.79-3.58-1.9-2.81-.31-7.15-.41-9.92-.1-6.42.72-21.05,9.51-22.49-.99,8.19,4.37,14.83-1.7,22.75-2.74,12.07-1.59,24.97,4.34,27.18,17.12-.33,1.09-11.6,3.91-13.73,4.32-9.61,1.82-15.56,1.99-24.14-3.26-1.77-1.08-2.77-3.53-4.79-4.21-3.73-1.25-10.74.34-10.26-6.23ZM146,150.02c-3.92,6.24,8.01,12.76,11.36,5.86,3.85-7.93-10.15-7.77-11.36-5.86ZM143.85,158.86l-2.01-7.99-5.99,2.01c-1.54,2.05,7.01,6.77,8,5.98ZM167.85,156.86l-5.99-4.99-2.01,6.99,7.99-2.01Z"/>
    <path class="cls-1" d="M215.85,148.86c5.56-2.17,9.3-3.51,15.49-2.97,7.56.66,12.68,5.66,20.91,4.9,2.75-.25,6.04-3.61,6.59.57-2.15,4.41-9.05,2.31-11.05,3.07-1.65.63-5.3,5.81-9.41,7.48-8.55,3.49-22.37.83-30.99-2.08-1-.34-2.01-.26-2.49-1.52,2.82-11.68,13.78-18.16,25.48-17.47,6.25.37,11.85,3.96,17.63,4.39,2.29.17,7.33-2.38,7.83.16,1.53,7.82-20.3-.14-22.6-.41-5.38-.62-13.83-.83-17.39,3.88ZM232.7,150.02c-1.05-1.66-13.67-1.5-11.65,4.13,2.73,7.64,14.49,4.79,11.65-4.13ZM242.85,152.88l-5.99-2.01c.34,3.07-.4,5.45-2.01,7.99.96.79,9.54-3.92,8-5.98ZM217.84,152.87c-1.08-.94-6.48,2.28-6.99,3.99l9,2-2.01-5.99Z"/>
    <path class="cls-1" d="M250.52,321.01c5.52-1.88,8.4,5.36,4.33,7.36-6.55,3.22-8.88-5.81-4.33-7.36Z"/>
    <path class="cls-1" d="M150.6,314.09c17.22-2.84,18.3,25.42-.18,22.72-12.63-1.84-11.8-20.75.18-22.72ZM158.53,320.19c-2.8-3.05-7.16-2.6-10.68-1.3-.84,1.14,7.05,3.32,4.52,8.96-.78,1.72-3.97,2.4-3.51,5.02,7.92,3.56,15.62-6.19,9.67-12.68Z"/>
  </g>
</svg>