<?xml version="1.0" encoding="UTF-8"?>
<svg id="Layer_2" data-name="Layer 2" xmlns="http://www.w3.org/2000/svg" viewBox="0 0 414.54 412.78">
  <g id="Layer_1-2" data-name="Layer 1">
    <path d="M193.01.43c174.01-10.87,284.79,184.63,182.02,327.02-85.81,118.91-267.38,112.4-344.23-12.4C-50.71,182.69,38.56,10.08,193.01.43ZM193.01,7.43C55.91,16.5-31.55,161.31,24.35,287.5c61.93,139.79,255.36,160.4,344.67,35.96C468.19,185.29,361.52-3.71,193.01,7.43Z"/>
    <path d="M238.21,150.14v101.5c0,.5-1.57,2.12-1,3.49,15.1,2.23,38.54,6.93,50.03,17.48,2.53,2.32,4.2,6.53,6.06,7.94,2.7,2.05,11.73,4.5,15.6,6.4,41.79,20.62,37.34,47.48-3.69,64.66-51.91,21.74-160.3,22.78-209.29-6.68-30-18.04-23.42-41.07,4.95-55.67,5.32-2.74,15.76-5.29,19.72-8.28,2.41-1.82,3.9-5.86,6.62-8.38,11.67-10.87,34.66-15.4,50.03-17.48.58-1.4-1-3-1-3.5v-101l2.03-1.06c11.86,11.72,28.55,15.24,44.24,9.34,6.38-2.4,9.5-7.92,15.73-8.77ZM231.21,162.14c-14.38,8.14-33.2,8.43-47.52.01-3.05-.27-.48,1.08-.48,1.49v89c0,1.21,3.18,6.45,4.17,7.83,9.56,13.12,32.75,12.55,40.86-1.79.52-.91,2.96-6.65,2.96-7.04v-89.5ZM210.21,288.14h21.5c2.91,0,2.91,7,0,7h-49c-2.91,0-2.91-7,0-7h21.5l-.05-11.96c-6.22-.44-14.98-3.67-19.45-8.05-2.05-2.01-3.43-6.73-5.99-7.03-15.99,1.02-75.31,17.04-40.53,37.55,30.83,18.18,96.6,17.5,129.28,4.24,17.24-6.99,30.23-18.2,7.75-30.28-11.87-6.38-26.37-9.1-39.53-11.52l-1.48.5c-5.45,8.46-13.66,14.51-24.01,14.54v11.99ZM293.22,288.14c-.18,4.84-3.61,8.53-7,11.51-29.67,26.03-125.03,25.49-155.92,1.9-4.06-3.1-8.82-8-9.1-13.41-24.32,13.78-12.28,27.39,7.34,36.17,39.4,17.64,117.89,17.43,157.35,0,19.36-8.55,31.39-22.57,7.34-36.17ZM103.21,296.15c-10.37,3.8-24.24,15.92-19.48,27.98,2.97,7.53,14.41,15.02,21.44,18.56,49.66,24.97,161.6,25.23,209.72-3.37,24.7-14.68,20.31-31.63-3.67-43.16,7.17,14.79-5.06,25.14-16.98,31.51-40.71,21.76-130.17,21.66-171.38,1.34-12.65-6.24-27.16-17-19.65-32.85Z"/>
    <path d="M200.97,83.4c49.16-7.13,53.57,64.54,11.63,69.63-47.14,5.72-53.63-63.54-11.63-69.63ZM234.21,115.14c1.6-24.34-35.41-35.39-48.56-16.06-.76,1.12-4.81,7.93-5.18,8.82-.76,1.83-.84,5.15-1.26,7.24h18c2.63-10.23,6.05-.09,6.61.07.74.21,6.79.17,7.69-.05,1.21-.29,1.79-5.01,5.17-4.01l1.53,3.99h16ZM234.21,122.14h-55l2.01,7c4.57-3.93,6.74-1.64,5.89,3.94l-2.91.57c1.61,7.85,5.5,3.68,8.38,4.55,2.69.82.77,4.97,2.23,6.05,4.85,3.62,18.04,3.33,23.4.37,3.03-1.67-2.53-1.62-2.04-3.98l2.7-3.31,3.22.95.63,3.84c6.01-5.38,11.43-11.34,11.5-20Z"/>
    <path d="M123.92,102.25c1.88-.48,4.3,1.35,4.13,3.2-16.35,27.21-20.06,59.59-8.02,89.36,1.38,3.42,11.27,17.8,4.66,18.39-2.99.27-3.93-2.61-5.28-4.77-13.75-22.07-16.28-52.51-9.7-77.29,1.35-5.07,9.65-27.73,14.2-28.89Z"/>
    <path d="M291.92,103.45c.99.87,5.28,8.53,6.17,10.31,14.01,28.12,13.74,64.55-1.71,92.05-1.12,2-3.64,7.21-5.7,7.4l-3.06-1.01c-.76-.65-1.35-1.29-1.25-2.38.12-1.29,8.39-15.96,9.85-20.17,7.83-22.62,6.92-47.55-2.55-69.48-1.3-3.02-7.77-13.64-7.34-15.32.68-2.66,3.55-3.19,5.58-1.4Z"/>
    <path d="M277.05,123.31c.47.28,4.12,8.48,4.64,9.85,4.97,12.91,5.85,26.47,3.05,40.02-.77,3.76-5.83,20.02-10.03,20-6.98-1.97,0-9.9,1.53-14.49,3.99-11.95,4.24-25.93.98-38.06-.94-3.49-5.76-13.06-5.74-14.82.04-2.97,3.51-3.74,5.56-2.49Z"/>
    <path d="M142.08,123.27c2.76,1.72-4.18,13.76-5.15,17.09-3.62,12.41-3.46,23.89.34,36.22,1.62,5.28,9.01,14.24,2.45,16.62-3.86.03-9.2-15.56-10.02-19.05-2.88-12.29-2.14-26.23,1.8-38.22,1.21-3.69,5.07-16.1,10.58-12.66Z"/>
    <path d="M221.96,50.38c6.22,5.17-6.34,7-8.28,8.73-3.33,2.97-2.15,10.74-5.98,11.11-5.49.52-3.58-9.07-7.92-12.14-2.43-1.72-8.17-.37-8.62-4.45-.56-5.08,7.59-3.07,10.54-6.51,1.9-2.22,1.8-9.24,4.1-9.95,5.72-.26,3.91,7.49,7.45,10.44,2.4,1.99,7.3,1.6,8.72,2.77ZM208.19,57.13l1.91-4.35-3.38-2.66-3.49,3.52,4.96,3.5Z"/>
    <path d="M276.04,69.98c-6.44,2.49-13.68,5.73-20.68,5.02-2.35-1.48,1.38-18.59,2.77-20.43s2.88-1.52,4.81-.68c.72.31,11.71,9.1,12.26,9.77,1.47,1.8,1.33,4.14.84,6.33Z"/>
    <path d="M155.98,54.38c1.1,1.17,5.5,17.89,2.83,19.85-3.18,2.47-22.27-2.13-21.14-7.18.4-1.82,12.76-12.8,14.62-13.41,1.25-.41,2.84-.17,3.7.75Z"/>
    <path d="M325.93,147.35c12.38-2.81,19.12,13.22,8.64,19.64-14.99,9.18-23.21-16.33-8.64-19.64ZM325.46,154.39c-6.57,6.57,9.66,13.48,7.75,2.3-.65-3.82-5.37-4.67-7.75-2.3Z"/>
    <path d="M140.93,224.35c14.31-3.23,16.91,17.82,4.52,19.6-13.32,1.91-15.08-17.22-4.52-19.6ZM142.91,230.25c-4.16,1.04-3.88,8.95,2.66,6.76,3.54-1.18,1.17-7.72-2.66-6.76Z"/>
    <path d="M267.94,224.33c15.04-3.26,16.64,19.29,2.67,19.77-11.43.4-12.81-17.58-2.67-19.77ZM273.07,237c2.34-1.48.59-8.7-3.86-6.4-4.94,2.55-.43,9.11,3.86,6.4Z"/>
    <path d="M158.07,140.28c2,4-1.24,8.14-1.75,12.47-.31,2.63-.35,6.29-.14,8.93.39,4.98,3.53,9.15,2.12,13.03-5.46,6.87-8.67-9.92-8.96-13.18-.66-7.45.84-14.54,4.04-21.21l4.69-.04Z"/>
    <path d="M260.98,140.37c1.86,2.02,4.31,15.13,4.27,18.22-.06,3.87-2.44,18.1-7.52,17.62s.32-12.25.52-16.52c.11-2.23.11-4.73-.15-6.94-.36-3.03-2.93-8.2-2.87-10.17.08-2.61,4.1-4,5.74-2.21Z"/>
    <path d="M165.92,75.28c2.9-.75,16.52,9.71,11.36,13.44-3.35,2.3-14.35-8.65-13.91-10.93.17-.89,1.66-2.28,2.56-2.51Z"/>
    <path d="M246.93,75.28c3.62-.58,4.14,3.17,2.8,5.87-.74,1.48-10.07,9.31-12.57,7.55-4.18-2.96,7.15-13,9.77-13.42Z"/>
    <path d="M183.91,63.25c3.38-.89,8.81,9.43,8.35,12.36-1.6,10.32-16.03-10.34-8.35-12.36Z"/>
    <path d="M155.46,102.9l-.82-3.82,2.43-2.43c19.51,1.33,16.67,12.95-1.6,6.25Z"/>
    <path d="M227.86,63.26c8.91-2.93,1.65,16.7-4.04,14.8-4.47-1.49,2.17-14.19,4.04-14.8Z"/>
    <path d="M252,97.43c12.7-1.36,8.15,6.86-3.44,7.64-7.18.48-6.13-6.62,3.44-7.64Z"/>
    <path d="M89.86,159.3c2.41-.46,7.37,4.6,5.94,6.86l-2.57,1.6c-2.54.75-4.49-2.6-5.9-4.32-.56-1.53,1.12-3.88,2.53-4.15Z"/>
    <path d="M92.7,147.49c6.76-.06,1.2,9.24-2.85,8.5-5.25-.97-1.11-8.46,2.85-8.5Z"/>
    <path d="M79.89,159.3c5.55-.46,2.62,8.23-2.05,8.79-4.68-1.94-1.86-8.46,2.05-8.79Z"/>
    <path d="M77.86,147.3c3.7-.68,7.91,6.68,2.87,8.62-3.89-.53-8.26-7.63-2.87-8.62Z"/>
    <path d="M95.83,208.22c4.75-1.54,7.68,5.34,2.68,6.76-5.48,1.55-5.45-5.87-2.68-6.76Z"/>
    <path d="M315.95,99.4c3.72,3.72-3.06,7.95-5.3,4.79s2.05-8.04,5.3-4.79Z"/>
    <path d="M312.3,221.05c-1.8-2.55,3.08-8.4,5.45-4.95,2.73,3.96-3.52,7.69-5.45,4.95Z"/>
    <path d="M313.82,224.23c4.32-1.38,5.91,3.75,3.45,5.47-4.34,3.04-7.29-4.24-3.45-5.47Z"/>
    <path d="M304.82,224.23c4.32-1.38,5.91,3.75,3.45,5.47-4.34,3.04-7.29-4.24-3.45-5.47Z"/>
    <path d="M108.21,91.15c2.06,9.22-9.21,6.47-5.08,1.41,1.25-1.53,3.23-1.57,5.08-1.41Z"/>
    <path d="M99.19,100.17c.4,2.46-.21,4.82-2.62,5.77-3.69-.13-4.6-2.17-2.35-5.34l4.97-.43Z"/>
    <path d="M104.84,99.21c3.17-.52,4.78,6.38,1.84,6.93-4.22.79-6.2-6.22-1.84-6.93Z"/>
    <path d="M309.21,221.14c-9.22,2.06-6.47-9.21-1.41-5.08,1.53,1.25,1.57,3.23,1.41,5.08Z"/>
    <path d="M94.82,91.23c5.17-1.61,5.58,5.13,2.86,5.9-3.34.95-6.47-4.77-2.86-5.9Z"/>
    <path d="M202.92,178.35c19.56-5.78,17.18,35.63-.08,26.66-6.97-3.63-6.58-24.69.08-26.66ZM205.21,184.14v15h4c-.49-2.94,1.11-13.07-.94-14.56l-3.06-.44Z"/>
    <path d="M221.82,102.23c5.17-1.61,5.58,5.13,2.86,5.9-3.34.95-6.47-4.77-2.86-5.9Z"/>
    <path d="M215.84,92.21c2.45-.39,5.14,4.8,1.77,5.84-5.62,1.75-5.18-5.3-1.77-5.84Z"/>
    <path d="M191.74,101.15c3.49-.99,6.48,4.59,1.8,5.85-4.16,1.12-4.27-5.15-1.8-5.85Z"/>
    <path d="M199.3,97.05c-2.95-4.06,5.1-7.15,5.84-2.28.44,2.83-4.58,4.02-5.84,2.28Z"/>
    <path d="M206.3,102.23c4.06-2.95,7.15,5.1,2.28,5.84-2.83.44-4.02-4.58-2.28-5.84Z"/>
    <path d="M225.82,127.23c4.32-1.38,5.91,3.75,3.45,5.47-4.34,3.04-7.29-4.24-3.45-5.47Z"/>
    <path d="M207.11,137.25c2.95,1.84,0,8.11-3.93,5.46-3.18-2.14.53-7.58,3.93-5.46Z"/>
    <path d="M195.31,127.25c3.77-2.64,7.49,4.41,2.24,5.75-4.29,1.09-3.51-4.85-2.24-5.75Z"/>
    <path d="M215.22,127.14l-.1,4.9c-7.03,2.83-7.77-7.08.1-4.9Z"/>
  </g>
</svg>