<?xml version="1.0" encoding="UTF-8"?>
<svg id="Layer_2" data-name="Layer 2" xmlns="http://www.w3.org/2000/svg" viewBox="0 0 383.84 381.59">
  <g id="Layer_1-2" data-name="Layer 1">
    <path d="M178.67.45c165.29-10.99,267.87,181.94,162.18,311.18-79.66,97.4-232.86,92.25-305.79-10.16C-51.29,180.21,31.46,10.24,178.67.45ZM187.67,5.45C49.84,8.86-38.77,158.88,28.7,280.83c68.76,124.27,248.48,127.37,322.59,6.24C427.48,162.55,332.14,1.88,187.67,5.45Z"/>
    <path d="M177.74,15.27c116.41-8.18,209.05,93.01,188.41,208.56-16.08,90.04-102.34,151.88-192.83,141.89-9.58-1.06-21.68-5.58-29.94-6.19-6.19-.46-7.12,3.6-16.28.47-9.46-3.24-10.58-8.43-16.61-13.07s-16.74-8.92-24.04-14.13C-45.73,238.44,16.74,26.59,177.74,15.27ZM249.97,94.57c-13.3-6.69-16.28-23.44-10.24-36.39,4.34-9.31,11.61-6.26,2.38-17.79-4.54-5.67-11.75-8.25-14.87-11.71-1.41-1.56-.64-3.8-1.05-4.24-1.71-1.86-22.58-3.98-26.51-4.17-39.13-1.87-82.67,11.71-112.87,36.56,7.58,4.67,15.72,8.68,22.32,14.79,6.32,5.85,3.35,2.19,11.29,4.59,9.42,2.86,17.42,16.37,15.97,25.93-.35,2.34-2.99,6-2.73,7.51.33,1.9,10.08,17.45,11.95,21.94,2.07,4.98,5.11,18.82,6.83,21.54.43.67,9.33,5.17,11.73,7.61,4.99,5.07,9.63,15.13,9.54,22.25-.03,2.71-3,9.36-2.68,10.09,1.44,3.19,25.91,21.88,28.84,22.14,4.74-3.83,7.99-10.88,13.77-14.56,8.59-5.48,16.15-1.33,19.4-2.77,1.87-.83,3.17-4.38,4.82-5.87,1.02-.92,10.53-7.88,10.06-8.47-8.28-1.62-15.44-6.2-21.17-12.23-1.52-1.6-2.47-4.59-3.79-5.75-4.95-4.37-9.86-2.82-14.72-11.78-4.73-8.72-2.81-12.21-2.66-20.67.08-4.57-9.67-16.33-12.57-21.34-1.82-3.14-5.86-13.87-7.1-15.16-1.33-1.37-5.91-2.36-8.47-4.26-22.33-16.57-3.09-59.12,21.41-44.74,16.69,9.79,15.65,40.59-2.85,48,3.64,9.46,8.59,18.61,15.34,26.24,6.84-5.3,14.63-5.51,21.41.05l1.37-.32c3.8-2.16,17.2-25.12,15.85-27ZM226.93,307.33c1.13.65,7.56.17,10.98,1.22,12.6,3.86,19.35,20.62,13.35,32.24l6.87,6.83c51.41-19.81,91.23-68.58,101.85-122.54,15.24-77.48-23.64-153.13-93.81-187.55-5.94-2.91-18-8.93-24.07-9.86-.63-.1-1.75-.28-1.59.54,4.46,4.13,8.44,8.55,11.88,13.57.8,1.17,1.67,4.57,2.07,4.81.62.38,6.01.52,8.62,1.46,16.84,6.05,19.08,35.27,4.29,45.18-2.39,1.6-8.17,3.1-8.59,3.61-1.12,1.33-3.81,10.35-5.35,13.2-2.07,3.82-13.53,18.98-13.81,20.17-.52,2.2,1.66,4.87,1.87,7.28.89,10.35-.14,18.45-8.28,25.51,3.47,8.66,13.3,11.08,21.54,12.98,7.83-19.61,35.64-23.38,50.99-10.5,3.2,2.69,3.31,6.97,8.31,5.18,1.91-.68,3.82-8.43,5.11-10.79,3.38-6.16,15.77-25.23,22.76-25.94,3.35-.34,6.25,3.67,4.91,6.88-.84,2.03-8.45,7.64-10.87,10.42-4.49,5.16-7.72,11.32-10.63,17.45,6.16,2.1,21.08-9.91,25.29-7.25.51.32,1.32,3.67,1.23,4.58-.83,8.14-33.77,15.71-41.31,13.33-2.28,19.14-30.17,23.09-44.5,15.25-4.07-2.23-5.85-6.93-10.38-4.97-2.3,1-14.45,11.79-14.99,13.76-.69,2.52,2.52,8.04,2.91,11.54.82,7.37-1.25,14.85-5.08,21.11.24,3.32,27.12,7.02,31.03,5.67l1.25-.87c2.04-18.65,24.11-26.58,40.29-21.31,2.85.93,8.27,5.17,9.27,5.16,2.5-.03,9.03-4.02,11.26-5.71,1.92-1.45,9.25-11.31,11.59-2.87,1.82,6.55-12.45,14.82-17.8,16.29-.77,7.44,6.34,5.51,11.42,6.97,4.73,1.35,18.66,5.22,12.98,12.64-2.95,3.85-8.63-2.23-12.57-3.51-12.99-4.2-10.57-.49-17.17,6.62-13.35,14.4-39.22,13.59-48.48-4.82-5.51-.21-11.1.39-16.61-.12-5.79-.54-17.91-5.36-21.28-5.14-3.55.24-7.23,5.5-11.38,6.68-3.58,1.02-6.69.54-10.25.89l-6.49,14.16c3.31,5.57,5.41,11.35,3.39,17.88,1.67,2.98,4.93,4.04,7.17,6.49,2.7,2.96,9.98,15.72,10.82,16.2ZM199.85,87.74c16.48-15.22-1.96-52.15-21.36-33.54-16.69,16.01,2.75,50.72,21.36,33.54ZM256.13,53.35c-17.8,1.7-16.07,38.03,2.95,35.89,16.36-1.84,13.83-37.49-2.95-35.89ZM68.76,74.33h18.55c.74,0,6.9-1.83,6.87-2.65l-14.48-7.75c-2.16-.26-12.46,9.12-10.94,10.4ZM125.97,170.75c.38-10.12,5.36-17.06,15.5-18.97,1.83-2.47-5.17-18.54-6.79-21.99-1.47-3.11-5.51-11.55-7.55-13.65-2.46-2.53-7.72-.99-12.14-2.7-11.81-4.56-17.68-22.74-10.2-33.29-.19-3.14-10.48,1.5-12.86,1.96-10.53,2.03-20.56,2.92-31.02-.18-22.92,26.15-35.63,59.24-39.83,93.65-.97,14.08-.27,27.82,1.04,41.87,8.67-.92,14.19,3.63,20.54,8.41l7.95-5.9c.21-5.47-.97-21.33,6.21-22.46,9.29-1.46,2.74,10.85,2.41,15.19-.92,11.89,6.74,9.89,12.72,18.01,6.51,8.84,6.94,19.34,2.58,29.18,4.31,4.03,22.08,15.58,27.07,13.24,1.09-.51,2.02-2.4,3.27-3.13,7.66-4.5,14.89-5.62,23.49-3.48,2.41.6,4.35,2.58,6.76,2.87,5.12.61,13.61-2.34,20.08-2.15,4.82.14,14.85,3.55,17.96,3.23,2.01-.21,7.75-6.75,11.9-8.26,4.57-1.66,8.11-1.16,12.81-1.51l5.3-11.8c-5.76-7.88-6.83-15.43-5.24-24.92-4.68-2.22-9.71-4.81-13.96-7.77s-17.25-15.3-19.79-16.21c-1.5-.54-3.95,1.34-5.94,1.48-17.03,1.2-23.88-9.08-31.88-22.01-4.12-.56-8.29.2-12.42-.3-6.87-.84-19.23-5.27-24.56-5.2-3.47.05-7.91,3.23-12.69,3.3-8.42.12-18.62-6.3-22.6-13.52-4.6-8.35-.35-12.46-11.61-15.95-5.07-1.57-12.76.18-10.64-6.97,1.16-3.92,7.42-3.12,10.69-2.61,3.53.55,10.88,5.06,11.89,5.07.38,0,2.63-5.15,5.85-4.3-2.7-5.04-7.04-29.8,3.21-27.1,5.3,1.39,2.65,11.5,3.25,15.91,1.51,11.15,5.59,8.79,12.97,12.48,9.13,4.57,14.81,14.95,13.58,25.11l32.69,5.39ZM115.04,82.06c-12.45.62-6.58,23.69,5.4,25.99,15.6,3,8.95-26.71-5.4-25.99ZM221.12,122.26c-17.95,1.89-13.9,40.14,4.96,37.91,17.75-2.1,13.46-39.85-4.96-37.91ZM66.39,141.31c-1.66.19-4.61,1.53-6.06,2.51-15.76,10.57,8.2,36.31,23.64,26.82,13.8-8.48-3.4-30.93-17.58-29.32ZM143.77,156.21c-25.48,1.32-8.4,47.01,15.14,40.58,20.41-5.57,6.11-41.69-15.14-40.58ZM278.41,165.77c-22.88,3.32-18.88,27.11,6.07,25.16,28.31-2.22,23.63-29.47-6.07-25.16ZM222.19,204.97c-17.17,3.53-26.66,45.16-2.81,39.58,17.38-4.07,25.8-44.3,2.81-39.58ZM294.31,223.02c-14.64,2.13-26.73,20.7-13.44,31.97,18.98,16.09,53.18-6.61,37.51-25.84-5.11-6.27-16.59-7.21-24.07-6.13ZM51.51,225.06c-18.09,3.94-1.67,43.86,15.88,33.93,14.15-8-.27-37.33-15.88-33.93ZM111.09,299.14c-5.71-.5-10.49-3.63-12.84-8.88-1.04-2.32-1.04-5.58-2.11-7.43-1.61-2.79-9.47-4.4-12.87-6.22-4.31-2.31-14.53-11.23-16.58-11.93-1.18-.4-4.6.59-7.52,0-7.58-1.52-14.51-8.52-17.42-15.46-1.85-4.4-1.91-11.3-3.66-14.36-1.18-2.06-12.57-10.26-13.84-8.95,9.03,47.95,41.06,90.34,83.73,113.43-.79-4.54,4.05-7.43,4.36-11.11.38-4.54-2.19-12.02-2.28-16.95-.08-4.36,1.11-7.94,1.04-12.15ZM190.42,265.38c-17.54,2.59-26.51,33.7-8.48,36.64,23.07,3.76,33.44-40.33,8.48-36.64ZM115.12,272.81c-19.36,3.95-11.84,26.65,8.76,19.36,16.14-5.71,11.58-23.52-8.76-19.36ZM248.97,349.98c-2.75.12-4.19-3.64-6.03-4.1-1.47-.37-4.81,1.04-7.21,1-13.17-.22-22.88-15.47-20.2-27.72.63-2.9,4.08-6.75,3.61-8.68-.63-2.6-10.92-16.15-13.17-16.66-3.27,1.89-4.78,5.34-7.98,7.82-17.58,13.65-37.46-2.6-28.56-22.18l-1-1.07c-3.05-1.84-24.47-2.46-26.98-.63-.49,13.54-9.32,19.83-21.65,22.56-2.17,3.24-.37,22.39,2.03,25.72,1.4,1.94,6.66,2.03,9.82,3.96,6.95,4.26,15.33,15.7,12.36,24.19,33.98,9.39,70.7,8.52,104.3-2.11l.66-2.1ZM227.47,314.14c-11.9,2.71-4.55,28.38,10.24,27.3,17.12-1.26,7.94-31.43-10.24-27.3ZM120.32,331.21c-2.35.15-6.12,2.33-6.81,4.66-4.06,13.7,22.39,27.25,26.82,17.23,3.42-7.73-11.48-22.43-20.01-21.89Z"/>
  </g>
</svg>