<?xml version="1.0" encoding="UTF-8"?>
<svg id="Layer_2" data-name="Layer 2" xmlns="http://www.w3.org/2000/svg" viewBox="0 0 353 352">
  <defs>
    <style>
      .cls-1 {
        stroke: #000;
        stroke-miterlimit: 10;
        stroke-width: 2px;
      }
    </style>
  </defs>
  <g id="Layer_1-2" data-name="Layer 1">
    <path class="cls-1" d="M157.83,1.68c143.35-12.03,242.78,138.35,169.37,263.37-66.91,113.96-233.64,114.83-301.59,1.25C-39.38,157.65,31.09,12.31,157.83,1.68ZM27.03,203.38v-54c9.17-3.1,17.33-10.85,27-12v60.5l1.46,1.27,7.54-1.77v-95.5c0-.64,1.85-2.82,2.64-3.36,12.55-5.26,25.68-16.1,37.96-21.03,1.97-.79,4.09-2.13,5.95-.16l-.55,105.05,8.99-3v-74.5l2.45-1.52,28.55,16.52v40.5c10.17-8.08,20.36-17.43,25.15-29.83,4.85-1.8,5.04,4.24,7.44,7.74,12.27,17.93,31.33,30.4,50.41,40.09v-46.5c4.94-2.69,24.42-15.56,28.55-15.51.94.01,2.45.96,2.45,1.51v73.5l9,2v-108.5c0-.61,2.06-2.12,3.06-1.08l38.94,24.08v94.5l29.99,1.99c14.26-85.63-37.83-167.79-120.77-191.71C110.06-19.97-1.27,69.29,6.04,186.87c.15,2.39,1.72,15.52,2.45,16.55,2.08,2.95,14.82-1.22,18.54-.04ZM105.03,82.38l-37,20.5v93.5l37-11v-103ZM309.03,201.38v-91.5l-33-19.5v103.5c10.23,4,22.13,4.84,33,7.5ZM122.03,109.38v67c3.48-.66,22.29-11.45,22.61-13.45l-.78-42.4-21.84-11.16ZM259.03,122.38l-21.39,11.11c-1.53.75-1.5,1.87-1.67,3.33-1.55,13.11,1.16,29.45.2,42.93l22.87,9.63v-67ZM178.03,199.38c2.6-.44,9.89,1.34,10.86-1.64l-.38-44.34-10.48-12.02v58ZM174.03,142.38l-10.98,12.52.41,43.55,1.2.79c3.07.08,7.18,1.2,9.36-1.36v-55.5ZM50.03,143.38l-19,9v50l19-2v-57ZM159.03,199.38v-41l-12,9.5v31.5h12ZM205.03,199.38v-31.5l-12-9.5v41h12ZM143.03,171.38c-4.83.15-8.18,5.24-13,6v23l13-1v-28ZM222.03,200.38v-21.5l-11.99-7.5c.72,9.42-1.39,18.6-1,27.99l12.99,1.01ZM126.03,180.38l-12,5v16l12-1v-20ZM238.03,201.38v-14.5l-12-6.5v19.5c2.9,2.93,8.14.98,12,1.5ZM110.03,188.38l-12.86,4.14-.14,10.86,13-1.01v-13.99ZM242.03,188.38v14l13,1,.07-9.54-.66-1.57-12.41-3.89ZM93.03,194.38l-12.53,3.96-.45,8.04,12.98-2.01v-9.99ZM272.02,206.38l-.45-8.04-12.53-3.96v10s12.98,2,12.98,2ZM76.03,199.38l-12.04,2.45c-1.63,1.15-.82,4.7-.95,6.54l12.86-2.14.13-6.86ZM289.03,208.38c-.12-1.97.7-5.25-.97-6.52l-12.02-2.47.1,6.89,12.89,2.1ZM58.03,203.38l-12.89,2.1-.11,5.9,12.86-2.14.13-5.87ZM339.01,224.42c-105.66-27.86-220.61-28.61-326.04.57l12.06,29.38c4.07-11.95,17.98-19.75,29.03-24.48,56.17-24.06,187.69-23.83,243.95.02,11.75,4.98,24.72,11.89,29.53,24.48l11.47-29.97ZM306.9,205.51l-12.86-2.14-.06,5.39,13.06,2.62-.13-5.87ZM40.04,206.37l-13.01,1v8.01s12.96-2.05,12.96-2.05l.05-6.96ZM325.04,207.37l-14.01-1v7s14,2.01,14,2.01v-8.01ZM23.03,208.38h-14c.29,2.03,1.97,11.78,3.48,11.92l10.47-2.96.04-8.96ZM343.04,209.39c-4.52-1.58-9.3-.92-14.01-1.02l.1,8.91,11.88,2.08,2.03-9.97ZM225.03,270.38v-50.5l-2.5-1.5c-30.93-1.55-62.08-1.55-93,0l-2.5,1.5v62.5c3.24-.05,6.16,1.92,9.39,1.89,9.4-.07,22.83-4.25,33.12-4.88,9.73-.6,19.75.42,29.5,0v3.99c-18.17-.85-36.08,1.15-54.01,3.5,21.54,8.23,45.14,14.5,68.38,11.37,11.88-1.6,24.04-6.06,36.09-6.91,6.85-.48,37.35-.35,41.1,5.02l-1.23,3.07c-12.09-3.67-25.2-4.91-37.82-4.04-14.23.98-27.98,6.72-42.14,7.86-55.82,4.51-109-42.82-165.37-20.86-.65.86,3.61,5.97,4.48,7,5.74,6.77,32.72,31.58,40.27,32.81,3.52.57,13.16-2.51,17.76-2.82,21.34-1.41,39.28,6.88,59.07,11.91,18.77,4.77,36.84,5.92,55.78,1.16,5.52,4.71-9.44,6.3-12.98,6.79-26.31,3.65-42.12-4.56-66.16-10.59-15.67-3.93-31.08-6.08-47.21-3.27l20.48,10.01c72.81,27.94,158.26.71,201.51-63.52-5.26-.58-10.54,2.25-15.79,3.21-21.06,3.85-43.32,3.58-64.58,1.17-27.25-3.09-54.84-13.81-82.04-3.98-6.34-5.51,11.07-7.64,14.88-7.94,18.74-1.47,37.35,2.24,55.54,6.04ZM123.03,219.38l-15.36,1.95-.7,1.5,1.02,52.89,15.05,4.66v-61ZM229.03,219.38v50.5c3.75,2.58,10.3,1.51,15,2.5-.99-4.43,1-9.6,1-13.5,0-1.9-1.05-3.83-1.05-5.96,0-10.51-.34-21.11.61-31.56l-15.56-1.98ZM103.03,222.38c-17.16,2.22-36.85,6.34-52.38,14.12-7.49,3.75-23.2,13.78-22.59,23.32.15,2.39,11.13,19.08,12.57,19.43,20.13-7.8,41.4-8.73,62.4-3.87v-53ZM249.03,273.38c18.7.22,36.83.57,55.2-3.3,10.66-2.24,24.81-4,17-18.41-9.15-16.89-53.93-28-72.2-29.3v51Z"/>
    <path class="cls-1" d="M249.98,312.32c-.53.82-10.8,3.31-12.76,3.75-24.61,5.53-49.73,4.27-74.2-1.18-28.03-6.24-55.97-17.74-85.41-10.63l-1.58-4.88c20.41-2.66,39.88-.65,59.83,3.67,35.84,7.76,56.55,17.13,95.21,9.86,3.96-.74,13.89-4.56,16.54-4.52,2.04.03,3.27,2.55,2.38,3.93Z"/>
  </g>
</svg>