<?xml version="1.0" encoding="UTF-8"?>
<svg id="Layer_2" data-name="Layer 2" xmlns="http://www.w3.org/2000/svg" xmlns:xlink="http://www.w3.org/1999/xlink" viewBox="0 0 902.44 17.15">
  <defs>
    <style>
      .cls-1 {
        fill: url(#linear-gradient-2);
      }

      .cls-2 {
        fill: url(#linear-gradient);
      }
    </style>
    <linearGradient id="linear-gradient" x1="481.85" y1="2.47" x2="481.87" y2="2.47" gradientUnits="userSpaceOnUse">
      <stop offset="0" stop-color="#eeca0d"/>
      <stop offset=".36" stop-color="#f4a607"/>
      <stop offset=".68" stop-color="#f78d04"/>
      <stop offset="1" stop-color="#f97902"/>
    </linearGradient>
    <linearGradient id="linear-gradient-2" x1="0" y1="8.58" x2="902.44" y2="8.58" xlink:href="#linear-gradient"/>
  </defs>
  <g id="Layer_1-2" data-name="Layer 1">
    <g>
      <path class="cls-2" d="M481.86,2.47s-.01,0,0,0c.01,0,.01,0,0,0Z"/>
      <path class="cls-1" d="M894.32,4.86h-5.11c-7.73.85-16.78.93-24.41-.05-.07,0-.13-.02-.2-.03-4.36.11-8.87.27-12.37,1-1.83.05-.3-.2-.29-.27-1.18.17-2.52.28-4,.32-.98.07-2.03.11-3.17.11-.28,0-.53,0-.8-.01-.32,0-.63.01-.96.01-2.62,0-4.81-.2-6.59-.54-.69-.04-1.35-.1-1.97-.18-.05.23-.13.37-.25.37l-4.19-.93c-2.91.96-5.4.14-7.12.23-.99.05-2.03.66-3.39.43-1.09-.14-1.58-.5-1.79-.94-1.34-.04-2.55-.13-3.65-.27-1.14.13-2.34.2-3.6.2-.94.05-1.89.09-2.84.09-1.64,0-3.2-.1-4.68-.28-.96-.01-1.86-.05-2.7-.11v.1h-12.14c-1.6.24-3.47.38-5.65.38-.73,0-1.42-.02-2.09-.05-1.5.2-3.24.32-5.23.32s-3.64-.11-5.11-.31c-1.07.19-2.27.33-3.62.41-.54.76-2.21,1.13-7.03.55-.57,1.25-4.99,1.32-8.43,1.3-1.02.08-2.11.12-3.3.12-.05,0-.1,0-.15,0-1.19.11-2.49.18-3.95.18-.56,0-1.07-.02-1.59-.04-1.04.08-2.16.13-3.38.13-2.57,0-4.74-.19-6.5-.52-.03.1-.04.2-.07.3-1.3-.42-3.37-.15-4.23-.35-.76-.17-1.15-.61-1.77-.91-4.29-.17-8.55-.41-12.51-.85-1.94.48-4.48.79-7.68.79s-5.55-.27-7.47-.72c-3.18.04-6.47-.07-9.64,0-2.25.05-4.13.55-6.97.23-1.42.19-3.04.3-4.88.31-1.35.15-2.87.24-4.58.24-.23,0-.43-.01-.65-.02-1.5.2-3.23.32-5.2.32-.82,0-1.58-.02-2.32-.06-.01.03-.02.06-.03.09-1.84-.27-3.9-.1-5.73-.27-2.53-.23-4.24-1.4-7.64-.89-1.24.18-1.38.68-2.57.78-.17.03-.36.05-.57.06-1.25.09-2.51.17-3.79.23-.46.02-.95.04-1.44.05-.53.02-1.07.05-1.6.05-2.3.04-4.48-.09-6.72-.23-2.21-.14-4.42-.28-6.64-.39-2.51.51-5.02,1.43-7.47,1.08-.94-.13-1.78-.73-2.84-.81-.94-.07-2.04.21-2.82.15-.32-.03-.55-.16-.71-.35-1.05-.04-1.98-.18-3.04-.27-1.41-.11-2.85-.18-4.28-.26-2.74-.14-5.48-.28-8.22-.43-1.46-.08-2.96-.17-4.42-.29-1.33.09-2.66.3-4.06.3-3.07,0-6.33-.64-9.92-.18,0-.08,0-.16,0-.24-.2.02-.4.04-.62.05-5.99.24-11.97.01-17.93-.2-2.48-.09-4.9-.15-7.25-.4-3.01.27-5.95.32-7.46-.26-2.21-.2-4.29-.6-6.27-.92-1.65-.27-3.39-.63-5.22-.89-1.19.13-2.64.34-3.87.51-.07.02-.11.04-.19.05-.37.06-.76.11-1.16.14-.02,0-.05,0-.07,0-.57.08-.98.12-1.05.1-.21.03-.46.03-.72.04-.26.24-.89.46-1.69.52-2.34.52-5.69.18-8.15.74l-4.3-1.07c-.25-.03-.45-.08-.64-.13-.67-.02-1.33-.03-2.01-.02-1.63.02-3.25.04-4.85,0-.26.05-.53.09-.83.11-2.67.16-7.81,0-10.94,0-.05.01-.11.02-.17.03-.02.36.02.72,0,1.08-4.06-1.24-7.64.56-11.52-.83-.1-.01-.2-.03-.29-.05-.14-.03-.23-.08-.33-.13-.04-.02-.09-.04-.13-.05,0,0-.05-.02-.07-.03-.03,0-.1-.04-.11-.04-.04-.02-.09-.03-.13-.05-.11-.04-.21-.08-.33-.11-.2-.06-.4-.12-.57-.19-.11-.04-.21-.08-.31-.13-.03,0-.05,0-.08,0-.38-.03-.77-.05-1.16-.08-.22-.02-.43-.03-.65-.05-.07,0-.33-.02-.07,0,0,0,0,0,.01,0-.27-.01-.55-.02-.82-.04-.24-.02-.46-.04-.66-.08-2.3-.17-4.23.38-5.91.42-2.11.05-4.03-.47-6.07-.67-.09.02-.16.05-.26.07-.46.13-1.01.22-1.63.26-.73.04-1.47.09-2.21.13-.38.14-.83.25-1.36.35-1.06.19-2.19.24-3.36.28-2.02.13-4.02.37-6.11.32-1.56-.04-3.05-.15-4.56-.26-3.63-.08-7.27-.12-10.9-.13-1.56.27-3.2.54-4.93.68-2.2.18-4.45.17-6.66.02-1.1-.07-2.15-.22-3.17-.37-.39-.06-.78-.12-1.18-.18-.07-.01-.15-.02-.22-.03-.05,0-.1-.01-.16-.02-.76-.09-1.52-.17-2.31-.23-.4-.03-.81-.06-1.22-.08-.05,0-.11,0-.16,0-.14,0-.36-.01-.46-.02.13.02.3.02.46.02.16,0,.21,0-.15-.01-1.01-.04-1.85-.1-2.64-.25-.94-.02-1.88-.04-2.82-.06-2.27.04-4.88-.1-7.02,0-3.78.19-4.65.5-9.95.55-.05.31.04.62,0,.93-5.66.05-10.82-.33-16.38.18,0,0,0,0,0,0-1.34.17-2.76.23-4.21.25-1.66.02-3.32-.04-4.98-.05-.24.07-.52.14-.83.19-.71.15-1.56.26-2.41.31-.61.03-1.28.07-1.92.06-.62,0-1.24-.04-1.84-.07-.7-.03-1.38-.09-2.07-.14-.17,0-.34,0-.51,0-.1,0-.2,0-.31,0-1.29.11-2.53.38-3.34.37-2.23-.01-3.18-1.6-7.14-1.48-1.17.04-2.49.36-3.95.41-.42.11-.87.21-1.39.29-.98.15-1.99.24-3.02.34-1.76.17-3.6.24-5.43.31-.82.04-1.62.1-2.42.17-.69.06-1.42.1-2.11.16-1.04.16-2.26.18-3.38.1-.4-.03-.75-.08-1.08-.14-2.59-.13-5.26-.24-7.88-.13-2.06.09-3.95.5-5.98.66-.61.12-1.25.21-2,.3-.88.11-1.79.15-2.72.18-1.29.06-2.56.14-3.86.17-.79.02-1.56,0-2.32-.05-.37.02-.74.03-1.12.04-1.9.06-3.81.06-5.71.09-.63,0-1.26.03-1.89.05h0c-.82.05-1.66.06-2.52.06-.54.01-1.08.03-1.62.04-.62.01-1.2-.03-1.73-.09-3.01-.08-6.04-.19-8.7.05-.44.15-.93.28-1.5.38-2.05.37-4.42.32-6.71.34-1.91.02-3.79-.03-5.7-.07-1.73-.04-3.46-.1-5.18-.18,0,.01,0,.02,0,.03-2.56-.18-6.46.19-8.64.13-1.99-.06-5.09-.8-8.01-.51-.42.09-.88.16-1.39.2-.48.04-.97.05-1.44.05-.05,0-.1,0-.16,0-.34.03-.67.06-1,.1-.95.13-1.91.24-2.94.3-.01,0-.02,0-.04,0-.07.02-.13.04-.2.06-.44.13-.85.27-1.28.4-.3.09-.63.18-.92.27-.07.02-.14.05-.21.07,0,0-.01,0-.02,0,0,0,0,0,0,0-.17.05-.35.1-.55.14-.09.03-.21.04-.31.07h.05c-1.86,1.05-5.55.48-8.14,0l-8.29-.1c-1.16.23-2.67.31-4.07.24-4.17-.21-8.04-.74-12-1.17-2.79-.31-5.71-.53-8.39-.92,0,.09,0,.18,0,.27l-6.3-1.25c-5.56,1.2-4.71.55-8.51-.2-.21-.04-.48-.07-.76-.1-.78,0-1.55.02-2.33.04,0,0,0,0-.01,0-.05,0-.09,0-.16.01-.34.02-.68.04-1.01.06-1.35.09-2.67.21-3.99.34-2.87.27-5.66.52-8.66.61-1.81.05-3.62-.04-5.22-.28-2.87-.1-7.07-.31-7.7-.37-1.38-.13-2.34-.83-3.45-.98-1.01-.14-2.89-.06-3-.1-.04-.01-.05-.08-.06-.18-3.85-.01-7.71-.29-11.49-.52-4.59-.28-9.2-.61-13.88-.71-3.87-.09-8.43.07-12.26-.25h-8.3c-.11,0-.97-.27-1.65-.5-3.38-.23-6.82-.35-10.19-.58-.07,0-.14,0-.21-.01-.01,0-.01,0-.02,0-.03,0-.04,0-.09,0-.62-.02-1.23-.04-1.85-.05-.91-.01-1.82.01-2.73.02-1.77.01-3.57-.04-5.17-.24.04.03.04.05-.03.07-2.06.37-4.64-.92-5.11-.92h-12.33s0-.03,0-.05c-1.58,0-3.15.03-4.73.06-.59.01-1.18.03-1.77.04-.06,0-.3,0-.53,0,0,0,0,0,0,0-.66.05-1.3.1-1.95.16-3.31.3-7.46.67-10.63.13-4.79-.18-8.8.58-13.69.76-.36.03-.76.05-1.18.06-.73.17-1.67.28-2.83.28-.18,0-.33-.01-.5-.02-2.5.23-5.01.41-7.49.68-2.12.23-4.25.4-6.41.55v.86l.19,1.86c-.06,0-.13,0-.19.01v.86l.6,5.9c.54.2,5.8-1.37,6.74-1.51,2.53-.38,4.35-.14,6.29-.27,2.13-.15,4.47-.8,6.86-.58,1.06.1,1.57.57,2.64.67,2.24.2,5.67-.11,8.2.38,1.72-1.05,3.39-.54,5.91-.75,1.05-.09,2.75-.83,4.31-.82.69,0,1.48.28,2.42.3,1.03.02,2.01-.19,3-.19,2.3,0,3.9.91,4.74,1.49l1.2.18c5.39,0,10.78,0,16.17,0,1.24,0,2.4.2,3.52.18,2.86-.04,6.58-1,9.55-.91,1.96.06,8.89,1.3,11.83,1.53,2.4.18,4.37.05,6.62.17,2.41.13,5.6.82,7.37.88,2.74.08,7.9-.55,11.3-.56,4.36-.01,6.28.63,9.56.75,3.84.15,8.66-.26,12.55-.37,5.42,1.05,7.62,1.56,14.35,1.66,6.06.09,11.23-.06,17.36-.19.92-.02,1.97.23,2.88.16,1.26-.09,1.57-.79,2.59-.88,1.16-.1,3.33.34,4.72.33,1.53-.01,2.59-.49,4.13-.5.56,0,6.97.33,7.65.39,2.44.23,5.1,1.2,8.66,1.38,4.06.21,3.61-.19,6.11-.42,5.42-.52,10.31,1.38,17.97.38,1.18-.15,2.13-.56,2.81-.62.94-.07,2.51.21,4.01.15,1.63-.06,2.86-.52,4.85-.56,2.24-.05,4.48.3,6.63.36,1.08.03,2.21-.2,3.47-.17,2,.05,3.01.66,5.98.55,3.74-.14,2.83-1.11,4.04-1.72,1.76-.89,9.86-.46,12.79-.48,8.37-.06,9.55-.74,15.03,1.81,1.26.1,2.25-.32,3.46-.33,1.42-.01,3.71.46,5.45.52,5.52.21,15.39.25,20.92.18.82-.01,1.38-.32,2.09-.27,2,.14,8.39,2.11,10.41,2.12,3.15.01,5.66-1.33,8.34-1.27,1.97.04,4.62.86,6.68.92,1.92.06,3.43-.39,5.92-.38,2.11.01,4.06.36,6.01.39,3.49.04,6.65-.26,10.71,0,1.68.11,2.33.68,3.09.71.68.03,1.26-.27,1.81-.3,1.3-.06,4.21.17,6.41.11,6.74-.19,11.6-1.17,17.15-2.08.86-.14,2.11-.05,2.94-.2.85-.15.84-.65,2.19-.77,3.56-.32,8.48.51,11.27.52,2.34,0,4.04-.53,6.06-.57,2.22-.05,4.21.33,6.98.14,2.76-.19,5.85-1.41,7.88-2l1.17-.15c3.22.46,7.1-.03,10.06.03,1.14.02,2.5.26,3.8.31,3.51.12,6.99-.27,8.91.94h.88s.91-.55.91-.55c2.11,1.02,4.53.41,8.11.63,4.69.3,7.29,1.68,13.39,1.38,5.85-.28,8.31-.03,13.19-.17,3.8-.11,5.15-.75,10.11-.54,4.48.19,7.59,1.61,10.82,1.65,5.36.08,5.11-2.27,9.61-2.41,1.88-.06,3.44.32,5.32.37,6.38.15,13.3-.12,19.73,0,2.2.04,4.13.38,6.59.38,3.87,0,8.92-.65,12.54-.58,2.3.05,3.92.64,6.03.74,5.63.27,14.57-.49,19.37.48,1.65.33,5.55,2.02,7.78,1.66.52-.08.87-.37,1.65-.44,3.3-.31,12.23,1.58,16.67,1.61,3.21.03,7.16-.8,10.17-.89,2.64-.08,5.15.25,8.25.15,3.79-.12,8.25-.87,12.05-.91,1.87-.02,6.74.12,8.94.17,6.54.14,9.43.78,16.26-.13,2.1-.28,5.94-1.35,7.6-1.33,2.17.03,4.35.97,7.1.71.81-.08,1.29-.44,1.99-.48.94-.06,8.93.49,10.23.65,1.06.13,1.69.57,2.89.6,1.5.04,2.35-.43,3.68-.53,5.8-.41,10.47-.24,16-.03,2.22.08,9.9.1,11.95-.01,1.62-.09,2.95-.7,4.71-.68,1.89.02,5.39.79,7.25,1.07,2.08.31,6.73,1.15,8.37,1.29.59.05,2.19.16,3.96.26,1.39-.08,2.8-.15,4.22-.21,2.92-.12,5.71-.23,8.44-.31.86-.14,1.71-.25,2.58-.3,6.63-.36,14.29-.2,20.99-.72,4.72-.36,13.23-2.11,17.12-1.83,2.54.18,5.55.88,9.25,1.02,6.47.25,8.92-.41,13.67-.5,1.43-.03,2.62.2,4.05.17,3.2-.06,7.45-.93,11.43-.93,6.42,0,17.02,1.25,23.35,1.31,3.6.04,5.03-.46,9.37-.14,4.54.33,7.05,1.54,11.82,1.42v-3.04c1.47.24,3.02.4,4.94.36v-7.6c-1.95-.29-6.1-.93-8.12-.93Z"/>
    </g>
  </g>
</svg>