<?xml version="1.0" encoding="UTF-8"?>
<svg id="Layer_2" data-name="Layer 2" xmlns="http://www.w3.org/2000/svg" viewBox="0 0 1710.19 477.27">
  <defs>
    <style>
      .cls-1 {
        fill: #020202;
      }

      .cls-2 {
        fill: #959699;
      }
    </style>
  </defs>
  <g id="Layer_1-2" data-name="Layer 1">
    <path class="cls-1" d="M1709.8,112.72c.51,6.26.55,16.76,0,23-8.36,95.4-122.62,145.1-198.87,86.41-64.74-49.83-64.74-147,0-196.83,76.69-59.03,191.07-8.59,198.87,87.41ZM1574.61,53c-26.59,3.18-50.44,26.13-57.48,51.5-15.78,56.88,40.86,107.74,95.68,85.7,76.08-30.59,49.38-147.69-38.19-137.2Z"/>
    <path class="cls-1" d="M797.01,25.72l-.04,206.54c5.06,68.43,58.73,89.19,120.39,82.33,52.05-5.79,83.14-34.27,83.65-88.33l-.04-200.54h54.99l.05,185.55c.44,84.35-42.11,132.61-125.65,141.33-96.06,10.02-187.47-20.24-188.37-131.33l.04-195.54h54.99Z"/>
    <path class="cls-1" d="M1423.86,6.72v53.5c0,.11-1.39,1.5-1.5,1.5h-209.95c-30.95,0-62.92,27.29-71.99,55.99-18.51,58.55.23,149.07,76,149h207.44v55.01l-193.5.04c-85.95-1.22-129.45-54.78-133.48-137.49-4.63-95.27,21.84-171.66,128.53-177.54h198.44Z"/>
    <polygon class="cls-1" points="724.02 344.72 657.54 344.72 553.57 130.71 449.59 344.72 384.1 344.72 553.55 17.72 724.02 344.72"/>
    <polygon class="cls-1" points="355.11 344.72 288.12 344.72 185.64 130.71 80.67 344.72 15.19 344.72 183.66 17.71 355.11 344.72"/>
    <rect class="cls-1" x="1487.85" y="264.72" width="203.95" height="56"/>
    <path class="cls-1" d="M277.63,398.72c17.43,2.46,22.43,25.63,8.5,35.98,13.58,4.57,12.84,25.45,3.54,34.06-2.48,2.29-9.91,5.95-13.04,5.95h-43.49v-76c13.77,1.4,31.17-1.88,44.49,0ZM249.13,428.72h21.5c6.57,0,10.72-10.55,5.49-14.49-.69-.52-5.96-2.51-6.49-2.51h-20.5v17ZM249.13,461.72h22.49c7,0,11.57-11.04,6.53-16.53-.87-.95-5.68-3.47-6.53-3.47h-22.49v20Z"/>
    <path class="cls-1" d="M1386.37,398.72c17.66,2.74,22.4,25.37,8.5,35.98,13.44,4.76,12.89,25.41,3.54,34.06-2.48,2.29-9.91,5.95-13.04,5.95h-43.49v-76c13.56,1.5,31.48-2.02,44.49,0ZM1357.88,428.72h21.5c.65,0,6-2.62,6.58-3.42,3.56-4.94-.02-13.58-6.58-13.58h-21.5v17ZM1357.88,461.72h21.5c8.47,0,13.04-11.79,7.03-17.03-.97-.85-6.11-2.97-7.03-2.97h-21.5v20Z"/>
    <path class="cls-1" d="M71.17,422.72h-16c-.75,0-1.68-8.22-9.28-11.22-32.3-12.73-40.88,49.89-9.07,52.16,9.02.64,20.25-7.12,19.35-16.94h-17v-13h32.99v41c-1.9-.31-11.57.43-11.99,0-.28-.29-.33-6.57-1.02-7.99-10.58,12.88-32.36,13.53-45.01,3.53-19.78-15.65-18.61-53.41,2.09-67.96,17.88-12.57,54.44-5.48,54.92,20.44Z"/>
    <path class="cls-1" d="M176.91,395.97c33.86-4.59,49.62,19.8,44.12,51.13-3.99,22.74-21.25,32.08-43.28,29.5-39.84-4.66-39.81-75.36-.85-80.63ZM180.89,409.96c-23.29,3.89-22.62,54.35,4.72,52.77,28.66-1.65,26.18-57.93-4.72-52.77Z"/>
    <path class="cls-1" d="M1575.61,396c29.19-3.68,46.16,13.16,45.2,42.19-.89,27.09-17.49,41.27-44.36,38.4-39.66-4.23-39.88-75.68-.84-80.6ZM1571.38,414.27c-17.1,15.37-7.64,57.33,19.43,46.93,13.81-5.31,15.79-25.97,11.2-38.17-4.72-12.56-20.28-18.07-30.63-8.76Z"/>
    <path class="cls-1" d="M1695.8,474.72h-18c-2.03-5.75.11-24.87-4.6-27.9-.53-.34-5.58-2.1-5.9-2.1h-19.5v30h-16v-76h45.49c2.04,0,7.62,3.02,9.52,4.48,11.63,8.97,10.78,27.59-2,35.02,11.35,6.15,6.45,19.2,8.03,28.95.49,3.03,3.3,4.38,2.95,7.55ZM1647.81,431.72h22.49c4.91,0,8.69-5.62,8.54-10.46-.14-4.45-4.12-9.54-8.54-9.54h-22.49v20Z"/>
    <path class="cls-2" d="M817.5,398.72c14.34,1.76,22.08,16.77,16.98,29.99-2.47,6.4-7.93,7.25-8.48,8.03-1.18,1.68,3.27,3.53,4.46,5.02,5.69,7.12,2.32,17.59,3.59,25.41.49,3.03,3.3,4.38,2.95,7.55h-18c-2.27-6.33.86-23.13-4.02-27.48-.48-.43-5.17-2.52-5.47-2.52h-20.5v30h-16v-76c14.01,1.25,30.83-1.68,44.49,0ZM789.01,431.72h22.49c4.91,0,8.69-5.62,8.54-10.46-.14-4.45-4.12-9.54-8.54-9.54h-22.49v20Z"/>
    <path class="cls-1" d="M1159.92,449.72v-51h15v76h-17l-29.99-52v52h-15v-76h16.5c2.97,0,24.28,46.36,30.49,51Z"/>
    <polygon class="cls-2" points="573.06 449.72 573.06 398.72 588.06 398.72 588.06 474.72 571.06 474.72 541.07 422.72 541.07 474.72 526.07 474.72 526.07 398.72 542.57 398.72 573.06 449.72"/>
    <path class="cls-2" d="M860.99,450.72c.39.4.22,6.74,4.47,10.02,5.82,4.49,24.47,4.26,26.3-3.74,1.5-6.56-.21-8.4-5.79-10.78-15.1-6.44-40.44-3.06-39.87-26.91.82-34.36,60.59-28.71,59.69-.87-.03.94-.7,2.26-1.31,2.26h-14.5c-.52,0-.01-5.76-4.49-9.01-10.71-7.77-30.57.86-22.09,11.1,7.02,8.48,40.68,3.71,44.35,23.64,7.24,39.3-62.82,41.33-62.75,4.27,2.35.43,15.44-.57,16,0Z"/>
    <path class="cls-1" d="M1282.89,398.72v55.5c0,8.62,17.34,12.42,23.91,5.92,1.31-1.29,4.08-7.47,4.08-8.92v-52.5h17v51.5c0,2.42-2.31,11.02-3.49,13.51-8.02,17.04-43.66,17.73-53.93,2.92-1.2-1.74-4.56-9.82-4.56-11.43v-56.5h17Z"/>
    <path class="cls-2" d="M465.58,398.72c1.3.4,1.41,2.28,1.55,3.45,1.81,15.42-1.58,34.39-.1,50.1,1.03,10.88,11.83,13.87,21.04,9.95,3.21-1.37,7-6.9,7-10v-53.5h17v46.5c0,3.47-1.55,13.58-2.96,17.04-7.7,18.85-45.2,19.72-54.83,2.77-1.34-2.35-4.19-9.51-4.19-11.8v-54.5c4.03.76,12.11-1.05,15.5,0Z"/>
    <polygon class="cls-2" points="758.02 398.72 758.02 412.72 718.03 412.72 718.03 428.72 755.02 428.72 755.02 441.72 718.03 441.72 718.03 460.72 760.02 460.72 760.02 474.72 703.03 474.72 703.03 398.72 758.02 398.72"/>
    <path class="cls-1" d="M1412.86,474.72l26.6-76.06,19.34.11,26.04,75.95h-18l-4.04-15.96-28.06.55-4.89,15.41h-17ZM1457.85,445.72c-3.03-7.79-4.57-18.15-7.95-25.55-.45-.99-.67-2.34-2.04-2.45l-8.01,28h18Z"/>
    <path class="cls-1" d="M304.12,474.72l26.6-76.06,19.29.16,26.09,75.9h-18l-4.61-16.06-27.42.52-4.96,15.54h-17ZM349.11,445.72l-9.5-29.01c-2.63,9.65-7.65,19.01-8.5,29.01h18Z"/>
    <path class="cls-1" d="M1254.9,423.72h-17c-.72,0-1.44-8.33-8.29-11.21-29.74-12.47-36.66,46.09-9.95,49.99,10.66,1.55,15.98-6.26,19.74-14.78h14.5c-1.19,34.12-50.46,39.92-63.71,10.23-4.47-10.01-4.68-29.21-1.05-39.51,11.22-31.81,61.52-28.94,65.76,5.28Z"/>
    <path class="cls-2" d="M644.04,398.72l16.49,55.01,15.51-55.01h17l-25.6,76.06c-3.18-.69-14.29,1.18-15.91-1.04l-24.47-75.02h17Z"/>
    <path class="cls-2" d="M1026.45,398.72l15.01,31.01c1.64.24,1.99-1.26,2.69-2.31,5.06-7.66,8.61-20.23,12.8-28.7h19l-25.99,47.5v28.5h-16v-29.5l-25.99-46.5h18.5Z"/>
    <polygon class="cls-1" points="1542.83 398.72 1542.83 412.72 1519.84 412.72 1519.84 474.72 1502.84 474.72 1502.84 412.72 1479.85 412.72 1479.85 398.72 1542.83 398.72"/>
    <path class="cls-2" d="M981.96,412.72v62h-17v-62h-22.99v-14h61.49c2.25,0,2.25,14,0,14h-21.5Z"/>
    <polygon class="cls-1" points="402.1 398.72 402.1 460.72 440.09 460.72 440.09 474.72 386.1 474.72 386.1 398.72 402.1 398.72"/>
    <polygon class="cls-1" points="102.17 398.72 102.17 460.72 140.16 460.72 140.16 474.72 86.17 474.72 86.17 398.72 102.17 398.72"/>
    <rect class="cls-1" x="1082.94" y="398.72" width="16" height="76"/>
    <rect class="cls-2" x="918.98" y="398.72" width="16" height="76"/>
    <rect class="cls-2" x="602.05" y="398.72" width="16" height="76"/>
  </g>
</svg>