<?xml version="1.0" encoding="UTF-8"?>
<svg id="Layer_2" data-name="Layer 2" xmlns="http://www.w3.org/2000/svg" viewBox="0 0 40.73 40.78">
  <defs>
    <style>
      .cls-1 {
        stroke: #000;
        stroke-miterlimit: 10;
        stroke-width: .5px;
      }
    </style>
  </defs>
  <g id="Layer_1-2" data-name="Layer 1">
    <path class="cls-1" d="M28.95,13.49l-.05-.05c-2.01-2.47-5.09-4.08-8.51-4.08s-6.6,1.66-8.61,4.23l-.05.05c-1.41,1.86-2.26,4.23-2.26,6.75s.86,4.88,2.32,6.75l.05.05c2.01,2.57,5.14,4.23,8.61,4.23s6.49-1.61,8.51-4.08l.05-.05v-.05c1.51-1.86,2.42-4.28,2.42-6.85-.1-2.61-.96-4.98-2.47-6.89h0ZM28.35,26.33c-1.01-.6-2.27-1.06-3.62-1.31.25-1.26.4-2.62.4-4.08h5.14c-.1,2.02-.81,3.88-1.91,5.39h0ZM10.52,20.89h5.14c.05,1.46.15,2.77.4,4.03-1.41.3-2.67.7-3.68,1.26-1.11-1.46-1.76-3.32-1.86-5.29h0ZM12.33,14.55c1.06.55,2.32,1.01,3.68,1.26-.25,1.21-.35,2.57-.4,4.03h-5.08c.1-1.91.76-3.78,1.81-5.29h0ZM19.89,19.89h-3.22c.05-1.41.15-2.72.4-3.83.91.15,1.81.25,2.82.25,0,0,0,3.58,0,3.58h0ZM19.89,20.89v3.62c-1.01,0-1.91.1-2.82.25-.2-1.16-.35-2.47-.4-3.83h3.22v-.05ZM20.89,20.89h3.22c-.05,1.41-.15,2.72-.4,3.88-.86-.15-1.81-.25-2.82-.3,0,0,0-3.57,0-3.57h0ZM20.89,19.89v-3.62c1.01-.05,1.91-.15,2.82-.3.25,1.16.35,2.47.4,3.93h-3.22ZM20.89,15.2v-4.68c1.01.4,1.96,2.01,2.57,4.43-.81.15-1.66.25-2.57.25ZM19.89,10.52v4.73c-.91,0-1.76-.1-2.57-.2.55-2.47,1.56-4.08,2.57-4.53h0ZM19.89,25.53v4.73c-1.01-.45-1.96-2.07-2.57-4.48.81-.15,1.66-.2,2.57-.25ZM20.89,30.26v-4.68c.91.05,1.76.1,2.57.25-.6,2.42-1.56,4.03-2.57,4.43ZM25.13,19.89c-.05-1.46-.15-2.87-.4-4.08,1.36-.3,2.57-.76,3.62-1.31,1.11,1.51,1.81,3.42,1.96,5.44h-5.18s0-.05,0-.05ZM27.69,13.64c-.91.5-1.96.86-3.17,1.16-.45-1.71-1.06-3.12-1.81-4.08,1.92.4,3.63,1.46,4.99,2.92h0ZM18.12,10.67c-.76.96-1.41,2.42-1.86,4.18-1.21-.25-2.32-.6-3.27-1.11,1.36-1.51,3.12-2.57,5.14-3.07h0ZM12.99,27.04c.91-.45,2.01-.86,3.27-1.11.45,1.76,1.06,3.22,1.86,4.18-2.01-.5-3.78-1.56-5.14-3.07h0ZM22.66,30.11c.76-.96,1.41-2.37,1.81-4.08,1.21.25,2.27.65,3.17,1.16-1.26,1.41-3.02,2.47-4.99,2.92h0ZM10.27,7.7c1.06.3,2.32.91,3.78,1.76.1.05.15.05.25.05.15,0,.35-.1.45-.25.15-.25.05-.55-.15-.7-1.51-.91-2.87-1.56-4.03-1.86-.25-.1-.55.1-.65.35-.05.3.1.55.35.65h0ZM7.05,9.92c-.25.1-.45.35-.35.65.35,1.16.96,2.52,1.91,4.08.1.15.25.25.45.25.1,0,.2,0,.25-.05.25-.15.3-.45.15-.7-.91-1.46-1.51-2.77-1.81-3.83-.05-.3-.35-.45-.6-.4h0ZM30.51,33.08c-1.06-.3-2.37-.91-3.78-1.76-.25-.15-.55-.05-.7.15-.15.25-.05.55.15.7,1.46.91,2.87,1.56,4.03,1.86h.15c.2,0,.45-.15.5-.35.05-.2-.1-.5-.35-.6h0ZM33.58,30.86h.15c.25-.1.45-.35.35-.65-.35-1.16-.96-2.52-1.91-4.08-.15-.25-.45-.3-.7-.15-.25.15-.3.45-.15.7.91,1.46,1.51,2.77,1.81,3.83.05.2.25.35.45.35h0ZM31.47,14.8c.1.05.15.05.25.05.15,0,.35-.1.45-.25.96-1.56,1.56-2.92,1.91-4.08.1-.25-.1-.55-.35-.65-.25-.1-.55.1-.65.35-.3,1.06-.91,2.32-1.81,3.83-.1.3-.05.61.2.76h0ZM26.48,9.51c.1,0,.2,0,.25-.05,1.46-.86,2.72-1.46,3.78-1.76.25-.1.45-.35.35-.65-.1-.25-.35-.45-.65-.35-1.16.3-2.47.96-4.03,1.86-.25.15-.3.45-.15.7.1.2.25.25.45.25h0ZM23.66,8.21c.05.25.25.4.5.4h.1c.3-.05.45-.35.4-.6-.4-1.71-.96-3.17-1.51-4.23-.15-.25-.45-.35-.7-.2s-.35.45-.2.7c.5.95,1.01,2.32,1.41,3.93h0ZM16.51,8.56h.15c.25,0,.45-.15.5-.4.4-1.61.86-2.92,1.41-3.93.15-.25.05-.55-.2-.7-.25-.15-.55-.05-.7.2-.55,1.06-1.06,2.47-1.51,4.13-.1.35.1.61.35.71h0ZM4.03,18.63c.1,0,.15,0,.25-.05,1.01-.5,2.32-1.01,3.98-1.41.3-.05.45-.35.35-.6-.05-.3-.35-.45-.6-.35-1.76.45-3.17.96-4.23,1.51-.25.15-.35.45-.2.7.05.1.25.2.45.2h0ZM8.05,24.62c.25,0,.45-.15.5-.4s-.1-.55-.35-.6c-1.56-.4-2.92-.86-3.93-1.41-.25-.15-.55-.05-.7.2-.15.25-.05.55.2.7,1.06.55,2.47,1.06,4.18,1.51,0,0,.05,0,.1,0h0ZM9.31,25.98c-.25-.15-.55-.05-.7.15-.96,1.56-1.56,2.92-1.91,4.08-.1.25.1.55.35.65h.15c.2,0,.45-.15.5-.35.3-1.06.91-2.32,1.81-3.83.1-.25.05-.55-.2-.7h0ZM14.05,31.32c-1.46.86-2.72,1.46-3.78,1.76-.25.1-.45.35-.35.65.05.25.25.35.5.35h.15c1.16-.3,2.47-.96,4.03-1.86.25-.15.3-.45.15-.7-.15-.25-.45-.35-.71-.2h0ZM17.12,32.58c-.05-.3-.35-.45-.6-.35-.25.05-.45.35-.35.6.45,1.76.96,3.17,1.51,4.23.1.15.25.25.45.25.1,0,.15,0,.25-.05.25-.15.35-.45.2-.7-.55-.96-1.01-2.32-1.46-3.98h0ZM24.27,32.22c-.25-.05-.55.1-.6.35-.4,1.66-.91,2.97-1.41,3.93-.15.25-.05.55.2.7.1.05.15.05.25.05.2,0,.35-.1.45-.25.55-1.01,1.06-2.42,1.51-4.13.05-.3-.15-.55-.4-.65h0ZM36.55,22.2c-1.01.55-2.37,1.01-3.98,1.41-.3.05-.45.35-.4.6.05.25.25.4.5.4h.1c1.66-.4,3.12-.96,4.23-1.51.25-.15.35-.45.2-.7-.1-.2-.4-.3-.65-.2h0ZM32.17,16.51c-.05.25.1.55.35.6,1.66.4,3.02.91,3.98,1.41.1.05.15.05.25.05.2,0,.35-.1.45-.25.15-.25.05-.55-.2-.7-1.01-.55-2.42-1.06-4.23-1.51-.25-.05-.5.1-.6.4h0ZM20.39,3.77c.96,0,1.76-.81,1.76-1.76s-.81-1.76-1.76-1.76-1.76.81-1.76,1.76.81,1.76,1.76,1.76ZM20.39,1.31c.4,0,.7.3.7.7s-.3.7-.7.7-.7-.3-.7-.7.3-.7.7-.7ZM7.4,9.16c.45,0,.91-.15,1.26-.5.7-.7.7-1.81,0-2.47-.7-.7-1.81-.7-2.47,0-.7.7-.7,1.81,0,2.47.3.3.76.5,1.21.5ZM6.9,6.9c.15-.15.3-.2.5-.2s.35.05.5.2c.15.15.2.3.2.5s-.1.35-.2.5c-.3.3-.76.3-1.01,0-.15-.15-.2-.3-.2-.5-.05-.2.05-.4.2-.5ZM2.01,18.63c-.96,0-1.76.81-1.76,1.76s.81,1.76,1.76,1.76,1.76-.81,1.76-1.76-.8-1.76-1.76-1.76ZM2.01,21.1c-.4,0-.7-.3-.7-.7s.3-.7.7-.7.71.3.71.7-.3.7-.71.7ZM6.14,32.12c-.7.7-.7,1.81,0,2.47.35.35.81.5,1.26.5s.91-.15,1.26-.5c.7-.7.7-1.81,0-2.47-.7-.65-1.81-.65-2.52,0ZM7.9,33.89c-.3.3-.76.3-1.01,0-.15-.15-.2-.3-.2-.5s.1-.35.2-.5c.15-.15.3-.2.5-.2s.35.05.5.2c.15.15.2.3.2.5,0,.2-.05.4-.2.5ZM20.39,37.01c-.96,0-1.76.81-1.76,1.76s.81,1.76,1.76,1.76,1.76-.81,1.76-1.76-.8-1.76-1.76-1.76ZM20.39,39.47c-.4,0-.7-.3-.7-.7s.3-.7.7-.7.71.3.71.7-.3.7-.71.7ZM32.12,32.12c-.7.7-.7,1.81,0,2.47.35.35.76.5,1.26.5.45,0,.91-.2,1.26-.5.7-.7.7-1.81,0-2.47-.65-.65-1.81-.65-2.52,0ZM33.89,33.89c-.25.25-.76.25-1.01,0-.3-.3-.3-.76,0-1.01.15-.15.3-.2.5-.2s.35.05.5.2c.15.15.2.3.2.5.05.2-.05.4-.2.5ZM38.77,18.63c-.15,0-.3.05-.5.1-.15,0-.3.05-.35.15-.55.3-.91.86-.91,1.51s.35,1.21.91,1.51c.1.1.2.15.35.15.15.05.3.1.45.1.96,0,1.76-.81,1.76-1.76.05-.96-.76-1.76-1.71-1.76h0ZM38.77,21.09c-.4,0-.7-.3-.7-.7s.3-.7.7-.7.71.3.71.7-.3.7-.71.7ZM33.38,9.16c.45,0,.91-.2,1.26-.5.7-.7.7-1.81,0-2.47-.65-.65-1.81-.65-2.47,0-.7.7-.7,1.81,0,2.47.3.3.76.5,1.21.5ZM32.88,6.9c.15-.15.3-.2.5-.2s.35.05.5.2c.15.15.2.3.2.5s-.1.35-.2.5c-.25.25-.76.3-1.01,0-.3-.3-.3-.76,0-1.01Z"/>
  </g>
</svg>