<?xml version="1.0" encoding="UTF-8"?>
<svg id="Layer_2" data-name="Layer 2" xmlns="http://www.w3.org/2000/svg" viewBox="0 0 47.21 40.37">
  <defs>
    <style>
      .cls-1 {
        fill-rule: evenodd;
      }
    </style>
  </defs>
  <g id="Layer_1-2" data-name="Layer 1">
    <path class="cls-1" d="M12.42,32.83l-.02-.03-1.83-2.34-6.23,7.97h12.46l-4.38-5.61ZM24.36,22.12s-.03-.04-.05-.06l-.99-1.26-1.08,1.38s-.06.07-.08.11l-2.62,3.36h0s-.04.06-.07.09h0c2.15.53,3.89,1.44,5.55,2.31,1.81.95,3.53,1.85,5.56,2.02h0s-.03-.04-.04-.06c0,0-.02-.02-.02-.03l-3.42-4.38s-.03-.04-.05-.06c0-.01-.02-.03-.03-.04l-2.63-3.37ZM25.17,20.03c.03-.05.06-.11.09-.17.16-.32.26-.68.26-1.08,0-.65-.26-1.24-.69-1.67-.2-.2-.44-.37-.7-.48v2.06l1.04,1.33ZM22.2,16.64c-.26.12-.5.28-.7.48-.43.43-.69,1.01-.69,1.67,0,.43.11.82.3,1.16.06.11.13.21.2.3l.89-1.14v-2.47ZM20.11,21.79l-1.52,1.94c-.56-.52-1.03-1.14-1.39-1.83-.48-.92-.75-1.97-.75-3.09,0-1.85.75-3.53,1.96-4.74,1-1,2.31-1.69,3.78-1.9v2.44c-.8.18-1.51.59-2.07,1.14-.77.77-1.25,1.84-1.25,3.03,0,.76.2,1.47.55,2.1.19.33.42.63.67.9h0ZM24.13,14.62v-2.44c1.47.21,2.78.9,3.78,1.9,1.21,1.21,1.96,2.89,1.96,4.74,0,1.07-.25,2.09-.7,2.99-.32.65-.75,1.24-1.26,1.75l-1.53-1.95c.23-.26.42-.54.58-.85.3-.59.48-1.25.48-1.96,0-1.18-.48-2.25-1.25-3.03-.56-.56-1.27-.96-2.06-1.14h0ZM1.91,38.44l7.91-10.12c.33-.42.93-.49,1.35-.17.07.05.13.11.18.18l1.83,2.34.74-.94c-1.45-1.23-2.65-2.75-3.52-4.46-.98-1.94-1.53-4.13-1.53-6.45,0-3.95,1.6-7.53,4.19-10.12,2.38-2.38,5.59-3.92,9.16-4.16V.96c0-.53.43-.96.96-.96s.95.42.96.94h10.17c.53,0,.96.43.96.96,0,.22-.07.42-.2.58l-2.06,2.96,2.08,2.99c.3.44.19,1.04-.24,1.34-.14.1-.3.15-.46.17.75.95,1.39,2,1.88,3.13.77,1.76,1.2,3.71,1.2,5.75,0,2.27-.53,4.42-1.47,6.33-.83,1.69-1.99,3.19-3.39,4.42l.62.79s.03.03.04.05l.49.63,2.11-2.71c.33-.42.93-.49,1.35-.17.07.05.13.11.18.18l7.9,10.11h.95c.53,0,.96.43.96.96s-.43.96-.96.96H.96c-.53,0-.96-.43-.96-.96s.43-.96.96-.96h.94ZM42.86,38.44l-6.23-7.97-1.65,2.11,4.58,5.86h3.31ZM37.12,38.44h-17.88l-4.85-6.21,1.59-2.03s.04-.04.05-.06c0,0,0-.01.01-.02l2.1-2.69c2.33.4,4.2,1.38,5.98,2.31,2.46,1.29,4.76,2.5,7.94,2.24l.93,1.19s.01.02.02.03l4.11,5.25ZM17.41,25.25l-2.32,2.96c-1.23-1.06-2.25-2.35-2.99-3.81-.85-1.67-1.32-3.57-1.32-5.58,0-3.42,1.39-6.52,3.63-8.76,2.03-2.03,4.76-3.36,7.79-3.59v3.76c-2,.22-3.79,1.13-5.14,2.48-1.56,1.56-2.53,3.72-2.53,6.11,0,1.43.35,2.78.97,3.97.49.93,1.13,1.77,1.91,2.46h0ZM24.13,10.23v-.29h7.68c1.13,1.11,2.05,2.42,2.7,3.89.67,1.52,1.04,3.2,1.04,4.98,0,1.97-.46,3.83-1.27,5.48-.7,1.43-1.68,2.7-2.85,3.75l-2.32-2.97c.73-.69,1.34-1.51,1.79-2.42.58-1.16.9-2.46.9-3.85,0-2.38-.97-4.54-2.53-6.11-1.35-1.35-3.14-2.25-5.14-2.47h0ZM24.13,2.87v5.15h8.33l-1.4-2.01c-.23-.32-.25-.77,0-1.11l1.41-2.03h-8.33Z"/>
  </g>
</svg>