<?xml version="1.0" encoding="UTF-8"?>
<svg id="Layer_2" data-name="Layer 2" xmlns="http://www.w3.org/2000/svg" viewBox="0 0 49.46 49.49">
  <g id="Layer_1-2" data-name="Layer 1">
    <path d="M24.17,17.61l-4.93,4.93c-.33-.16-.7-.26-1.09-.26-1.35,0-2.45,1.1-2.45,2.45s1.1,2.45,2.45,2.45,2.45-1.1,2.45-2.45c0-.39-.09-.76-.26-1.09l4.93-4.93c1.6-1.6,3.74-2.48,6.02-2.48s4.42.88,6.02,2.48c3.32,3.32,3.32,8.72,0,12.04-1.87,1.87-4.49,2.74-7.08,2.42l1.4-.75c.38-.21.52-.68.32-1.06-.21-.38-.68-.52-1.06-.32l-3.19,1.72c-.18.1-.32.27-.38.46s-.04.41.06.6l1.72,3.19c.14.26.41.41.69.41.13,0,.25-.03.37-.09.38-.21.52-.68.32-1.06l-.87-1.61c.56.1,1.13.14,1.69.14,2.64,0,5.21-1.03,7.12-2.94,3.93-3.93,3.93-10.33,0-14.25s-10.33-3.93-14.25,0h0ZM18.15,25.63c-.49,0-.88-.4-.88-.88s.4-.88.88-.88.88.4.88.88-.4.88-.88.88ZM25.28,31.87l4.93-4.93c.33.16.7.26,1.09.26,1.35,0,2.45-1.1,2.45-2.45s-1.1-2.45-2.45-2.45-2.45,1.1-2.45,2.45c0,.39.09.76.26,1.09l-4.93,4.93c-1.6,1.6-3.74,2.48-6.02,2.48s-4.42-.88-6.02-2.48-2.48-3.74-2.48-6.02.88-4.42,2.48-6.02c1.86-1.86,4.49-2.74,7.08-2.42l-1.4.75c-.38.21-.52.68-.32,1.06.14.26.41.41.69.41.13,0,.25-.03.37-.09l3.19-1.72c.18-.1.32-.27.38-.46s.04-.41-.06-.6l-1.72-3.19c-.21-.38-.68-.52-1.06-.32-.38.21-.52.68-.32,1.06l.87,1.61c-3.2-.54-6.5.5-8.81,2.8-1.9,1.9-2.94,4.43-2.94,7.13s1.04,5.23,2.94,7.13c1.9,1.9,4.43,2.94,7.13,2.94s5.23-1.04,7.13-2.94h0ZM31.3,23.86c.49,0,.88.4.88.88s-.4.88-.88.88-.88-.4-.88-.88.4-.88.88-.88ZM8.98,10.1c-.17-.17-.25-.41-.22-.64l.44-3.71c.05-.43.44-.74.87-.68.43.05.74.44.68.87l-.17,1.47,2.64-2.64c6.35-6.35,16.68-6.35,23.03,0l1.49,1.49c.31.31.31.8,0,1.11-.31.31-.8.31-1.11,0l-1.49-1.49C29.4.13,20.06.13,14.32,5.87l-2.64,2.64,1.47-.17c.43-.05.82.26.87.68s-.26.82-.68.87l-3.71.44s-.06,0-.09,0c-.21,0-.41-.08-.55-.23h0ZM40.47,39.39c.17.17.25.41.22.64l-.44,3.71c-.05.4-.38.69-.78.69-.03,0-.06,0-.09,0-.43-.05-.74-.44-.68-.87l.17-1.47-2.64,2.64c-3.17,3.17-7.35,4.76-11.52,4.76s-8.34-1.59-11.52-4.76l-1.49-1.49c-.31-.31-.31-.8,0-1.11.31-.31.8-.31,1.11,0l1.49,1.49c5.74,5.74,15.08,5.74,20.82,0l2.64-2.64-1.47.17c-.43.05-.82-.26-.87-.68-.05-.43.26-.82.68-.87l3.71-.44c.24-.03.48.06.64.22h0ZM49.46,24.74c0,4.36-1.69,8.45-4.76,11.52l-1.49,1.49c-.15.15-.35.23-.55.23s-.4-.08-.55-.23c-.31-.31-.31-.8,0-1.11l1.49-1.49c2.77-2.77,4.3-6.47,4.3-10.41s-1.53-7.64-4.3-10.41l-2.64-2.64.17,1.47c.05.43-.26.82-.68.87-.03,0-.06,0-.09,0-.39,0-.73-.29-.78-.69l-.44-3.71c-.03-.24.06-.48.22-.64.17-.17.41-.25.64-.22l3.71.44c.43.05.74.44.68.87-.05.43-.44.74-.87.68l-1.47-.17,2.64,2.64c3.07,3.07,4.76,7.16,4.76,11.52h0ZM10.32,39.86c.03.24-.06.48-.22.64-.15.15-.35.23-.55.23-.03,0-.06,0-.09,0l-3.71-.44c-.43-.05-.74-.44-.68-.87.05-.43.44-.74.87-.68l1.47.17-2.64-2.64c-3.07-3.07-4.76-7.16-4.76-11.52s1.69-8.45,4.76-11.52l1.49-1.49c.31-.31.8-.31,1.11,0,.31.31.31.8,0,1.11l-1.49,1.49c-2.77,2.77-4.3,6.47-4.3,10.41s1.53,7.64,4.3,10.41l2.64,2.64-.17-1.47c-.05-.43.26-.82.68-.87.43-.05.82.26.87.68l.44,3.71h0Z"/>
  </g>
</svg>