<?xml version="1.0" encoding="UTF-8"?>
<svg id="Layer_2" data-name="Layer 2" xmlns="http://www.w3.org/2000/svg" viewBox="0 0 39.49 42.22">
  <defs>
    <style>
      .cls-1 {
        fill-rule: evenodd;
        stroke: #000;
        stroke-miterlimit: 10;
        stroke-width: .5px;
      }
    </style>
  </defs>
  <g id="Layer_1-2" data-name="Layer 1">
    <path class="cls-1" d="M26.88,33.16h-2.18v-2.18h2.18v2.18ZM28.15,33.79v-3.44c0-.35-.28-.63-.63-.63h-3.44c-.35,0-.63.28-.63.63v3.44c0,.35.28.63.63.63h3.44c.35,0,.63-.28.63-.63ZM29.36,40.71h-3.32v-3.32h3.32v3.32ZM29.99,36.12h-4.58c-.35,0-.64.28-.64.63v4.58c0,.35.28.63.64.63h4.58c.35,0,.64-.28.64-.63v-4.58c0-.35-.29-.63-.64-.63ZM18.54,38.86h-4.43v-4.44h4.43v4.44ZM19.17,33.16h-5.7c-.35,0-.63.28-.63.63v5.7c0,.35.28.63.63.63h5.7c.35,0,.63-.28.63-.63v-5.7c0-.35-.28-.63-.63-.63h0ZM9.73,33.9h-2.18v-2.18h2.18v2.18ZM10.36,30.46h-3.44c-.35,0-.64.28-.64.63v3.44c0,.35.28.63.64.63h3.44c.35,0,.64-.28.64-.63v-3.44c0-.35-.29-.63-.64-.63ZM30.87,16.83c-.43.25-.42.88.04,1.11,2.09,1.05,4.18,3.19,3.85,5.42-.45,3-3.75,3.68-5.69,3.82v-1.89c0-.35-.28-.63-.63-.63h-3.95c-.35,0-.64.29-.64.64v2.46h-1.39l.52-15.84c1.49-2.15,3.13-4.04,4.76-5.48,1.39-1.22,3.76-2.74,5.91-3.01,1.49-.19,2.67.23,3.44,1.23,1.01,1.31,1.17,3.48.39,5.4-1.38,3.41-4.26,5.41-6.61,6.77h0ZM21.72,11.66l-.59,17.86c-.02.64-.63,1.16-1.36,1.16h-.06c-.73,0-1.34-.52-1.36-1.16l-.59-17.86c-.02-.54.2-1.02.62-1.37.87.39,1.85.39,2.72,0,.42.35.64.83.61,1.37h0ZM13.79,27.83v-2.53c0-.35-.28-.63-.63-.63h-3.44c-.35,0-.63.28-.63.63v1.72c-1.93-.36-4.01-1.3-4.36-3.65-.33-2.23,1.76-4.38,3.85-5.42.45-.22.47-.86.03-1.11-2.35-1.36-5.23-3.36-6.61-6.77-.78-1.92-.62-4.09.4-5.4.77-1,1.96-1.42,3.44-1.23,2.15.28,4.53,1.8,5.91,3.01,1.63,1.43,3.27,3.32,4.76,5.48l.53,15.91h-3.24ZM19.75,5.15c1.15,0,2.08.93,2.08,2.08s-.93,2.08-2.08,2.08-2.09-.93-2.09-2.08.93-2.08,2.09-2.08ZM38.65,10.54c.95-2.36.74-4.97-.56-6.65-1.05-1.35-2.68-1.96-4.61-1.71-2.43.31-4.99,1.92-6.58,3.32-1.45,1.27-2.9,2.89-4.26,4.71-.13-.24-.29-.47-.49-.67,1.38-1.44,1.2-3.74-.38-4.96,1.02-1.38,2.33-2.42,3.91-3.12.32-.14.47-.51.33-.83-.14-.32-.51-.47-.83-.32-1.85.82-3.38,2.06-4.55,3.7-.59-.16-1.2-.16-1.79,0-1.17-1.64-2.7-2.88-4.55-3.7-.32-.14-.7,0-.84.32-.14.32,0,.69.33.83,1.58.7,2.89,1.74,3.91,3.12-1.57,1.22-1.75,3.53-.37,4.96-.2.2-.36.43-.49.67-1.35-1.83-2.81-3.44-4.25-4.71-1.59-1.4-4.16-3.01-6.59-3.32-1.92-.25-3.56.36-4.61,1.71C.11,5.58-.12,8.19.84,10.55c1.34,3.31,3.9,5.38,6.21,6.83-2.16,1.4-3.94,3.68-3.56,6.19.4,2.68,2.59,4.39,6.16,4.83.38.05.71-.24.71-.63v-1.82h2.18v2.53c0,.35.28.63.64.63h3.91l.02.46c.05,1.33,1.2,2.38,2.62,2.38h.06c1.43,0,2.57-1.04,2.62-2.38l.02-.53h2.09c.35,0,.64-.28.64-.63,0-.05-.01-.1-.02-.14v-2.32h2.69v1.92c0,.34.29.64.65.63,1.25-.03,3.07-.23,4.65-1.03,1.65-.84,2.66-2.19,2.92-3.9.37-2.5-1.41-4.79-3.57-6.19,2.31-1.45,4.86-3.52,6.21-6.83h0Z"/>
  </g>
</svg>