<?xml version="1.0" encoding="UTF-8"?>
<svg id="Layer_2" data-name="Layer 2" xmlns="http://www.w3.org/2000/svg" viewBox="0 0 37.04 43.21">
  <g id="Layer_1-2" data-name="Layer 1">
    <g>
      <path d="M16.85,27.65l-8.67-8.57,2.17-2.2,6.5,6.42,9.85-9.73,2.17,2.19-12.02,11.88Z"/>
      <path d="M18.97,43.21c-.9,0-1.8-.22-2.62-.67l-5.99-3.24C3.97,35.86,0,29.09,0,21.64V4.36L18.52,0l18.52,4.36v17.59c0,7.24-3.81,13.92-9.93,17.44l-5.4,3.09c-.85.49-1.79.74-2.74.74h0ZM3.09,6.8v14.84c0,6.32,3.35,12.05,8.73,14.95l5.99,3.24c.74.4,1.62.39,2.36-.03l5.4-3.09c5.17-2.96,8.38-8.62,8.38-14.76V6.8l-15.43-3.63L3.09,6.8Z"/>
    </g>
  </g>
</svg>