<?xml version="1.0" encoding="UTF-8"?>
<svg id="Layer_2" data-name="Layer 2" xmlns="http://www.w3.org/2000/svg" viewBox="0 0 2489.68 2487">
  <g id="Layer_1-2" data-name="Layer 1">
    <path d="M1936.67,1591h-366.82v361.11l366.82-361.11ZM1962.61,1000.1l-258.32,260.82,257.35,265.51.98-526.32ZM1676.88,1288.61l-107.03,108.06v155.25h362.23l-255.2-263.31ZM1530.92,1436l-114.8,115.92h114.8v-115.92ZM1377.43,1591l-104.2,105.23,257.74,263.99v-369.22h-153.54ZM1245.77,1723.92l-254.56,257.05,503.61-1.95-249.04-255.1ZM904.21,1981.27l-398.09-391.25c-5.86-1.91-10.5-6.45-12.51-12.26l-193.79-190.47,1.32,596.32,603.07-2.34ZM267.34,1355.39l-237.95-233.85c-7.67-7.52-7.77-19.88-.24-27.55l463.4-469.95v-345.13c0-10.8,8.74-19.54,19.54-19.54.59,0,1.17.05,1.71.1l672.87.49,237.86-231.85c7.72-7.52,20.03-7.33,27.55.39l451.58,462.52c1.37,1.37,2.44,2.93,3.32,4.54l316.16.34c10.75,0,19.44,8.7,19.44,19.44l-2.59,666.13,225.94,224.08c7.62,7.57,7.67,19.93.1,27.55l-466.23,466.48-.59,328.38c0,10.75-8.7,19.44-19.44,19.44l-653.24-1.22-234.09,230.48c-7.67,7.52-20.03,7.43-27.55-.24l-438.54-450.46c-1.42-1.42-2.54-3.03-3.42-4.74l-341.22,1.32c-10.75,0-19.44-8.7-19.44-19.44l-1.42-633.26c0-5.76,2.49-10.94,6.5-14.51v.05ZM492.54,679.54l-421.93,427.89,421.93,414.65v-842.53ZM562.64,1590.95l367.7,361.4.39-361.4h-368.09ZM969.28,1947.66l249.24-251.63-102.54-105.03h-146.31l-.34,356.71-.05-.05ZM1245.92,1668.33l76.6-77.33h-152.12l75.52,77.33ZM1361.21,1551.92l169.66-171.32v-242.55l-158.57-163.6-242.15-.44-160.04,161.36-.24,250.22,162.38,166.34h228.96ZM1569.8,1341.32l79.87-80.65-79.92-82.41v163.11l.05-.05ZM1677.13,1232.97l255-257.45-362.33-.68v147.38l107.33,110.75ZM1569.75,571.67v364.23l367.95.68-367.95-364.92ZM1502.93,2017.91l-827.05,3.22,403.12,414.11,423.93-417.29v-.05ZM1530.82,1082.07v-107.33l-104.2-.2,104.2,107.52ZM1530.82,935.81v-365.89l-251.05,253.15,109.04,112.5,142.01.24ZM1365.95,2207.4l594.37,1.07.59-316.16v-1.71l.49-269.36-595.45,586.16ZM999.17,533.57l253.49,261.5,258.81-260.96-512.3-.54ZM2000.43,1572.05c.24,1.71.2,3.42,0,5.13l-.49,267.26,424.71-424.96-423.15-419.68-1.07,572.19v.05ZM1334.49,935.47l-82.12-84.71-83.68,84.41,165.8.29ZM1225.26,822.77l-254.56-262.62-.39,374.64,143.57.24,111.38-112.31v.05ZM550.92,934l380.5.68.39-371.9-380.89,371.17v.05ZM1075.38,973.91l-105.08-.2-.1,106.25,105.18-106.06ZM931.37,973.67l-364.38-.68,252.66,258.76,111.53-112.46.15-145.63h.05ZM2201.3,1143.08l2.34-608.24-616.3-.64,613.96,608.88ZM531.62,1522.22l260.57-262.77-260.57-266.87v529.64ZM931.12,1174.69l-84.27,84.95,84.07,86.12.2-171.08ZM819.4,1287.34l-262.43,264.63h373.76l.15-150.41-111.48-114.16v-.05ZM1853.58,495.56l-415.82-425.88-436.09,425,851.91.88ZM1146.7,298.89l-615.13-.44v599.94c205.27-200.05,410.06-399.6,615.13-599.5ZM969.72,1441.37l-.1,110.6h108.11l-107.96-110.6h-.05Z"/>
    <circle cx="1252.96" cy="827.62" r="51.76"/>
    <circle cx="1546.58" cy="961.13" r="51.76"/>
    <circle cx="1546.58" cy="519.92" r="51.76"/>
    <circle cx="1682.03" cy="1257.4" r="51.76"/>
    <circle cx="1546.58" cy="1387.29" r="51.76"/>
    <circle cx="1374.28" cy="1573.98" r="51.76"/>
    <circle cx="1962.61" cy="961.13" r="51.76"/>
    <circle cx="1243.01" cy="1696.14" r="51.76"/>
    <circle cx="1116.93" cy="1573.98" r="51.76"/>
    <circle cx="1443.06" cy="51.76" r="51.76"/>
    <circle cx="947.42" cy="1389.61" r="51.76"/>
    <circle cx="947.42" cy="1130.45" r="51.76"/>
    <circle cx="1545.92" cy="1125.73" r="51.76"/>
    <circle cx="1116.93" cy="961.13" r="51.76"/>
    <circle cx="947.42" cy="961.13" r="51.76"/>
    <circle cx="955.97" cy="519.92" r="51.76"/>
    <circle cx="1545.92" cy="1573.98" r="51.76"/>
    <circle cx="1988.43" cy="1578.18" r="51.76"/>
    <circle cx="816.41" cy="1252.42" r="51.76"/>
    <circle cx="515.23" cy="936.59" r="51.76"/>
    <circle cx="955.97" cy="1980.98" r="51.76"/>
    <circle cx="1545.76" cy="1977.65" r="51.76"/>
    <circle cx="1334.49" cy="2226.58" r="51.76"/>
    <circle cx="1983.84" cy="1863.1" r="51.76"/>
    <circle cx="2437.92" cy="1418.99" r="51.76"/>
    <circle cx="1880.32" cy="508.39" r="51.76"/>
    <circle cx="2233.42" cy="519.92" r="51.76"/>
    <circle cx="2212.29" cy="1165.7" r="51.76"/>
    <circle cx="531.57" cy="273.81" r="51.76"/>
    <circle cx="515.23" cy="650.18" r="51.76"/>
    <circle cx="51.76" cy="1100.8" r="51.76"/>
    <circle cx="515.23" cy="1551.97" r="51.76"/>
    <circle cx="281.58" cy="1345.77" r="51.76"/>
    <circle cx="301.14" cy="2005.29" r="51.76"/>
    <circle cx="651.23" cy="2005.29" r="51.76"/>
    <circle cx="1065.17" cy="2435.24" r="51.76"/>
    <circle cx="1988.43" cy="2226.58" r="51.76"/>
  </g>
</svg>