<?xml version="1.0" encoding="UTF-8"?>
<svg id="Layer_2" data-name="Layer 2" xmlns="http://www.w3.org/2000/svg" viewBox="0 0 2466.53 2470.9">
  <g id="Layer_1-2" data-name="Layer 1">
    <path d="M0,1526.41c93.16-61.84,188.11-111.36,284.03-150.73,292.75-120.15,593.96-145.79,881.56-140.06,218.2,4.34,327.95-29.89,406.31-135.26,134.84-181.21,205.44-543.17,213.78-764.2,4.07-108.01,4.47-219.96,3.15-336.16h32.92c1.32,116.35.94,228.48-3.13,336.73,5.68-30.04,11.12-60.72,16.28-92.1C1847.55,167.56,1858.47,86.21,1866.74,0h33.09c-8.37,88.17-19.49,171.26-32.39,249.92-11.69,71.12-24.8,138.57-38.68,202.86C1876.97,323.78,1923.26,175.28,1952.88,0h33.46c-37.58,226.04-102.55,407.88-164.33,560.99C1905.46,416.24,1993.69,235.48,2044.5,0h33.76c-61.56,291.13-179.13,499.82-277.06,660.56C1923.21,509.53,2065.85,301.98,2139.7,0h33.96c-84.35,352.92-260.4,579.51-393.65,738.03-.2,1.17-.4,2.33-.6,3.52,75.81-70.67,161.4-158.9,240.54-271.32C2107.31,346.17,2186.97,192.46,2237.18,0h34.06c-51.19,200.65-133.7,360.51-224.31,489.2-92.42,131.24-193.13,229.84-277.6,306.25-.6,3.03-1.22,6.03-1.81,9.04,92.47-67.32,199.61-156.64,298.78-277.11,109.72-133.28,209.86-304.91,269.86-527.38h34.08c-61.09,231.75-164.75,410.09-278.5,548.28-112.35,136.46-234.29,233.52-334.67,304.16-.97,4.12-1.91,8.24-2.9,12.36,109.12-62.75,238.51-152.14,358.43-280.16C2245.48,442.78,2366.81,253.33,2436.07,0h30.46v13.38c-71.12,256.95-194.67,449.43-329.93,593.83-132.86,141.87-276.88,237.19-393.5,301.68-1.29,4.82-2.58,9.63-3.9,14.42,125.88-57.24,278.35-145.96,419.62-281.15,117.39-112.35,227.19-256.93,307.71-442.38v78.27c-78.72,158.95-178.8,286.24-285.03,387.87-154.23,147.6-321.17,240.91-454.17,298.75-1.59,5.26-3.2,10.5-4.82,15.71,172.4-61.54,393.93-176.37,582.59-377.07,57.67-61.31,112.25-130.67,161.43-208.99v60.25c-42.82,62.95-89.07,119.9-137.42,171.33-201.72,214.55-440.1,333.16-619.4,393.8-1.86,5.51-3.77,11-5.68,16.48,191.24-52.55,442.11-165.03,655.89-375.53,36.79-36.24,72.49-75.41,106.62-117.66v51.53c-27.06,31.63-54.96,61.46-83.53,89.61-227.01,223.54-494.86,338.94-692.85,389.88-2.16,5.61-4.32,11.22-6.53,16.81,210.03-42.82,491.11-152.39,730.78-372.88,17.6-16.21,35-33.02,52.13-50.44v46.49c-9.88,9.58-19.81,18.99-29.81,28.2-253.08,232.85-551.43,344.63-768.12,385.19-2.43,5.71-4.89,11.37-7.37,17.05,1.09-.17,2.21-.35,3.3-.5,227.83-32.84,537.43-138.69,802-366.89v43.19c-265.24,220.41-570.85,323.68-797.34,356.34-8.44,1.22-16.66,2.68-24.67,4.34-2.51,5.29-5.06,10.57-7.62,15.84,231.63-19.76,548.83-110.69,829.63-320.3v40.81c-289.74,209.46-614.29,297.69-847.03,313.87-2.93,5.64-5.93,11.25-8.94,16.83,235.82-8.02,560.49-85.94,855.97-279.49v39.17c-304.61,194-637.17,269.39-874.54,273.76-132.46,235.08-270.08,527.33-355.57,807.19-40.59,132.83-69.41,262.78-80.3,382.28h-32.99c10.92-122.83,40.29-255.98,81.79-391.84,66.7-218.25,164.63-443.75,267.25-644.2-115.26,184.12-227.11,394.05-309.53,604.98-57.12,146.11-100.04,292.6-120.12,431.06h-33.26c20.16-142.61,64.07-293.17,122.68-443.08,82.09-210.08,193.1-419.17,307.79-603.17-127.89,169-253.42,364.34-351.35,568.66-75.09,156.64-133.9,318.49-165,477.58h-33.56c31.38-164.03,91.67-330.73,168.88-491.78,96.71-201.77,220.04-394.85,346.14-562.78-140.1,154.13-278.72,335.07-391.52,532.54-94.03,164.58-170.07,340.61-214,522.02h-33.86c44.41-187.37,122.46-368.9,219.22-538.28,110.42-193.33,245.21-370.87,382.09-523.28-151.62,139.43-302.6,306.15-429.57,496.6-113.52,170.29-207.8,359.47-266.11,564.96h-34.21c59.11-212.66,155.94-407.95,272.84-583.28,123.3-184.94,268.99-347.78,416.17-485.3-162.69,125.16-325.34,278-465.77,461.3-133.4,174.16-246.7,375.81-320.77,607.29h-34.53c75.24-239.62,191.69-447.87,329.11-627.29,135.29-176.62,290.91-325.29,447.55-448.44-147.65,94.95-295.7,210.43-431.01,351.73-182.18,190.2-341.38,427.24-445.71,724.01h-34.88c105.95-306.77,269.44-551.18,456.83-746.84,127.79-133.4,266.71-244.09,406.04-336.39-153.83,82.51-308.26,185.43-451.54,316.87-205.59,188.59-388.32,436.05-513.43,766.36h-35.2c127.2-341.47,314.86-596.64,526.31-790.63,133.95-122.88,277.4-221.15,421.01-301.26-158.7,70.7-318.21,161.68-468,283.09-229.17,185.83-435.98,443.2-583.03,808.8h-35.5c149.64-377.87,362.03-643.21,597.78-834.35,138.89-112.6,285.75-199.36,432.58-268.15-162.5,59.7-325.96,139.56-481.13,251.22C395.34,1797.53,168.8,2056.44,0,2443.59v-79.76c167.88-356.67,386.23-600.29,623.35-770.92,142.44-102.52,291.53-178.61,440.45-237.02-165.13,49.57-331.3,119.15-490.47,221.15C364.49,1710.92,167.41,1900.85,0,2175.1v-62.11c164.03-254.91,354.38-434.74,555.53-563.67,144.62-92.72,294.71-159.02,444.49-208-166.52,40.39-334.13,100.51-495.93,193.13C326.26,1636.23,155.22,1777.35,0,1974.75v-52.65c151.08-184.27,316.25-318.19,487.71-416.29,145.76-83.43,295.92-140.92,445.73-181.46-180.84,34.78-362.97,92.37-539,188.76C258.32,1587.62,125.71,1685.48,0,1813.97v-46.69c121.09-119.4,248.29-211.67,378.71-283.09,158.97-87.03,322.53-142.98,485.58-179.2-166.74,24.85-334.6,68.79-498.61,143.95C240.96,1506.1,118.38,1581.37,0,1680.09v-42.65c114.16-92.2,232.1-163.49,352-218.45,145.14-66.5,292.99-109,440.32-135.56-165.55,18.47-332.19,55.56-495.75,122.7C196.33,1447.27,97.18,1499.75,0,1566.13v-39.72h0Z"/>
  </g>
</svg>