<?xml version="1.0" encoding="UTF-8"?>
<svg id="Layer_2" data-name="Layer 2" xmlns="http://www.w3.org/2000/svg" viewBox="0 0 2980.22 1085.31">
  <g id="Layer_1-2" data-name="Layer 1">
    <path d="M2980.08,858.92c2.11,19.23-18.68,8.18-27.91,5.65-127.84-34.96-251.45-84.05-382.89-116.5-466.17-115.09-946.35-154.04-1423.07-117.07,62.1,342.62,453.03,419.92,639.33,146.84l130.91,8.51c-193.72,467.7-825.15,361.77-898.72-144.89-336.95,22.47-658.99,125.83-982.8,220.45-9.16,2.68-29.34,14.62-34.93,2.06,313.98-174.7,652.61-294.18,1000.14-351.44,78.38-683.48,902.09-683.26,979.96,0,347.88,55.32,683.26,179.19,999.98,346.39ZM1843.09,496.29c-23.8-325.82-383.2-475.11-596.17-253.91-47.02,48.84-109.86,164.88-110.15,238.25-.07,16.78-2.31,17.55,13.44,15.18,226.34-34.05,466.32-27.47,692.88.48Z"/>
  </g>
</svg>